<svg width="155" height="129" viewBox="0 0 155 129" fill="none" xmlns="http://www.w3.org/2000/svg">
<path d="M0.904297 13.4784C0.904297 6.0345 6.9388 0 14.3827 0H140.569C148.013 0 154.047 6.0345 154.047 13.4784V115.162C154.047 122.605 148.013 128.64 140.569 128.64H14.3827C6.93879 128.64 0.904297 122.605 0.904297 115.162V13.4784Z" fill="white"/>
<path d="M24.1493 87.8963C22.6639 87.8905 21.3859 87.5249 20.315 86.7995C19.2499 86.0741 18.4295 85.0234 17.8538 83.6475C17.2839 82.2715 17.0018 80.6163 17.0075 78.6819C17.0075 76.7533 17.2925 75.1096 17.8625 73.7509C18.4382 72.3922 19.2586 71.3588 20.3237 70.6507C21.3945 69.9368 22.6697 69.5798 24.1493 69.5798C25.6289 69.5798 26.9012 69.9368 27.9663 70.6507C29.0371 71.3646 29.8604 72.4008 30.4361 73.7595C31.0118 75.1125 31.2968 76.7533 31.2911 78.6819C31.2911 80.6221 31.0032 82.2801 30.4275 83.6561C29.8575 85.0321 29.04 86.0828 27.9749 86.8082C26.9099 87.5336 25.6346 87.8963 24.1493 87.8963ZM24.1493 84.796C25.1626 84.796 25.9714 84.2865 26.5759 83.2675C27.1804 82.2485 27.4798 80.72 27.4741 78.6819C27.4741 77.3405 27.3359 76.2236 27.0595 75.3312C26.789 74.4389 26.4032 73.7682 25.9024 73.3191C25.4072 72.8701 24.8229 72.6455 24.1493 72.6455C23.1418 72.6455 22.3358 73.1493 21.7313 74.1568C21.1268 75.1643 20.8217 76.6727 20.8159 78.6819C20.8159 80.0406 20.9512 81.1748 21.2218 82.0844C21.4981 82.9883 21.8867 83.6676 22.3876 84.1224C22.8885 84.5715 23.4757 84.796 24.1493 84.796ZM35.4298 87.7322C34.8598 87.7322 34.3704 87.5307 33.9617 87.1277C33.5587 86.7189 33.3572 86.2296 33.3572 85.6596C33.3572 85.0954 33.5587 84.6118 33.9617 84.2088C34.3704 83.8058 34.8598 83.6043 35.4298 83.6043C35.9824 83.6043 36.466 83.8058 36.8806 84.2088C37.2951 84.6118 37.5023 85.0954 37.5023 85.6596C37.5023 86.0396 37.4045 86.3879 37.2087 86.7045C37.0187 87.0154 36.7683 87.2659 36.4574 87.4558C36.1465 87.6401 35.804 87.7322 35.4298 87.7322ZM46.5634 87.7495C45.6538 87.7437 44.7758 87.5911 43.9295 87.2918C43.0889 86.9924 42.3348 86.5059 41.6669 85.8323C40.9991 85.1587 40.4694 84.2664 40.0779 83.1552C39.6922 82.0441 39.4994 80.6797 39.4994 79.0619C39.5051 77.5765 39.6749 76.2495 40.0089 75.0808C40.3485 73.9063 40.8321 72.9104 41.4597 72.0928C42.093 71.2753 42.85 70.6535 43.7309 70.2275C44.6117 69.7957 45.5991 69.5798 46.6929 69.5798C47.8732 69.5798 48.9152 69.8101 49.8191 70.2707C50.723 70.7255 51.4484 71.3444 51.9953 72.1274C52.548 72.9104 52.8819 73.7883 52.997 74.7613H49.3096C49.1656 74.1453 48.8634 73.6617 48.4028 73.3105C47.9422 72.9593 47.3723 72.7837 46.6929 72.7837C45.5415 72.7837 44.6664 73.2846 44.0677 74.2863C43.4747 75.2881 43.1724 76.6496 43.1609 78.371H43.2818C43.5466 77.8471 43.9036 77.4009 44.3526 77.0325C44.8075 76.6583 45.3227 76.3733 45.8984 76.1775C46.4799 75.976 47.0931 75.8753 47.7379 75.8753C48.7857 75.8753 49.7183 76.1229 50.5358 76.618C51.3534 77.1073 51.9982 77.7809 52.4703 78.6387C52.9423 79.4966 53.1784 80.4782 53.1784 81.5835C53.1784 82.781 52.8992 83.8461 52.3407 84.7788C51.788 85.7114 51.0137 86.4426 50.0177 86.9722C49.0275 87.4961 47.876 87.7552 46.5634 87.7495ZM46.5461 84.8133C47.1218 84.8133 47.6371 84.6751 48.0919 84.3988C48.5467 84.1224 48.9037 83.7482 49.1628 83.2761C49.4218 82.8041 49.5514 82.2744 49.5514 81.6872C49.5514 81.0999 49.4218 80.5731 49.1628 80.1068C48.9094 79.6405 48.5583 79.2691 48.1092 78.9928C47.6601 78.7165 47.1478 78.5783 46.572 78.5783C46.1402 78.5783 45.7401 78.6589 45.3717 78.8201C45.009 78.9813 44.6894 79.2058 44.4131 79.4937C44.1425 79.7815 43.9295 80.1155 43.774 80.4954C43.6186 80.8696 43.5409 81.2698 43.5409 81.6958C43.5409 82.2658 43.6704 82.7868 43.9295 83.2589C44.1943 83.731 44.5513 84.1081 45.0003 84.3902C45.4551 84.6723 45.9704 84.8133 46.5461 84.8133ZM55.8296 87.5077V84.8133L62.125 78.9842C62.6604 78.466 63.1095 77.9997 63.4722 77.5852C63.8407 77.1707 64.1199 76.7648 64.3099 76.3675C64.4999 75.9645 64.5949 75.5299 64.5949 75.0635C64.5949 74.5454 64.4768 74.0992 64.2408 73.725C64.0047 73.345 63.6823 73.0543 63.2736 72.8528C62.8648 72.6455 62.4014 72.5419 61.8832 72.5419C61.3421 72.5419 60.87 72.6513 60.467 72.8701C60.064 73.0888 59.7531 73.4026 59.5343 73.8114C59.3155 74.2201 59.2061 74.7066 59.2061 75.2708H55.6568C55.6568 74.1136 55.9188 73.109 56.4427 72.2569C56.9666 71.4049 57.7006 70.7457 58.6448 70.2793C59.589 69.813 60.6771 69.5798 61.9091 69.5798C63.1757 69.5798 64.2782 69.8044 65.2166 70.2534C66.1608 70.6967 66.8948 71.3127 67.4187 72.1015C67.9426 72.8902 68.2046 73.7941 68.2046 74.8131C68.2046 75.4809 68.0722 76.1401 67.8074 76.7907C67.5483 77.4412 67.0848 78.1638 66.417 78.9583C65.7492 79.747 64.8079 80.694 63.5931 81.7994L61.011 84.3297V84.4506H68.4378V87.5077H55.8296Z" fill="#231F20"/>
<path d="M16.0378 108.887L19.096 101.932H19.8458L22.9041 108.887H22.0261L21.1678 106.904L21.5821 107.15H17.3498L17.7642 106.904L16.9158 108.887H16.0378ZM19.4512 102.908L17.8826 106.618L17.6458 106.43H21.296L21.0592 106.618L19.4808 102.908H19.4512ZM25.1108 108.887L23.0588 104.043H23.9664L25.604 108.147H25.4561L27.1233 104.043H27.9915L25.9296 108.887H25.1108ZM31.1525 108.976C30.6263 108.976 30.1725 108.877 29.7911 108.68C29.4096 108.476 29.1136 108.186 28.9032 107.811C28.6993 107.437 28.5973 106.989 28.5973 106.47C28.5973 105.976 28.696 105.542 28.8933 105.168C29.0906 104.793 29.3668 104.497 29.722 104.28C30.0772 104.063 30.4915 103.954 30.965 103.954C31.4254 103.954 31.8135 104.056 32.1292 104.26C32.4514 104.457 32.6981 104.737 32.8691 105.098C33.0401 105.454 33.1256 105.881 33.1256 106.381V106.677H29.2287V106.105H32.583L32.4054 106.263C32.4054 105.736 32.2837 105.329 32.0404 105.039C31.797 104.743 31.4419 104.595 30.9749 104.595C30.6526 104.595 30.3731 104.671 30.1363 104.822C29.9062 104.967 29.7253 105.174 29.5937 105.444C29.4688 105.707 29.4063 106.019 29.4063 106.381V106.46C29.4063 106.861 29.4754 107.197 29.6135 107.466C29.7516 107.736 29.9522 107.94 30.2153 108.078C30.4783 108.216 30.794 108.285 31.1623 108.285C31.4386 108.285 31.7115 108.246 31.9812 108.167C32.2508 108.088 32.5073 107.95 32.7507 107.752L33.0368 108.344C32.8066 108.548 32.5205 108.706 32.1785 108.818C31.8365 108.923 31.4945 108.976 31.1525 108.976ZM34.433 108.887V104.043H35.2222V105.177H35.1729C35.2913 104.803 35.4918 104.513 35.7747 104.309C36.064 104.105 36.4291 103.99 36.8697 103.964L37.2446 103.934L37.3137 104.684L36.702 104.743C36.2482 104.783 35.8963 104.931 35.6464 105.187C35.4031 105.437 35.2814 105.766 35.2814 106.174V108.887H34.433ZM39.7974 108.976C39.462 108.976 39.1595 108.913 38.8898 108.788C38.6202 108.657 38.4064 108.479 38.2486 108.255C38.0973 108.032 38.0217 107.782 38.0217 107.506C38.0217 107.144 38.1203 106.858 38.3176 106.647C38.5149 106.437 38.8273 106.289 39.2548 106.203C39.6823 106.111 40.2479 106.065 40.9517 106.065H41.5337V106.628H40.9813C40.5867 106.628 40.2545 106.641 39.9849 106.667C39.7152 106.693 39.4982 106.739 39.3338 106.805C39.1693 106.864 39.0509 106.947 38.9786 107.052C38.9063 107.157 38.8701 107.292 38.8701 107.456C38.8701 107.726 38.9687 107.94 39.166 108.098C39.3634 108.255 39.6231 108.334 39.9454 108.334C40.2216 108.334 40.4683 108.272 40.6853 108.147C40.9024 108.015 41.0734 107.841 41.1983 107.624C41.3299 107.4 41.3956 107.157 41.3956 106.894V105.769C41.3956 105.375 41.297 105.089 41.0997 104.911C40.9089 104.727 40.613 104.635 40.2118 104.635C39.9224 104.635 39.6396 104.678 39.3634 104.763C39.0871 104.842 38.801 104.974 38.5051 105.158L38.2288 104.536C38.413 104.418 38.6169 104.316 38.8405 104.23C39.0641 104.145 39.2976 104.079 39.5409 104.033C39.7909 103.98 40.0309 103.954 40.2611 103.954C40.682 103.954 41.0372 104.023 41.3266 104.161C41.616 104.293 41.8363 104.497 41.9875 104.773C42.1388 105.049 42.2145 105.404 42.2145 105.838V108.887H41.445V107.792H41.4844C41.4121 108.022 41.297 108.226 41.1391 108.403C40.9879 108.581 40.7971 108.722 40.5669 108.828C40.3433 108.926 40.0868 108.976 39.7974 108.976ZM45.9474 110.751C45.5462 110.751 45.1581 110.695 44.7832 110.584C44.4084 110.472 44.0828 110.311 43.8066 110.1L44.0828 109.469C44.2735 109.6 44.4675 109.709 44.6649 109.794C44.8622 109.88 45.066 109.942 45.2765 109.982C45.487 110.028 45.7007 110.051 45.9178 110.051C46.411 110.051 46.7892 109.923 47.0523 109.666C47.3154 109.416 47.4469 109.054 47.4469 108.581V107.585H47.4765C47.3713 107.94 47.1608 108.226 46.8451 108.443C46.5294 108.653 46.1644 108.759 45.75 108.759C45.3028 108.759 44.9115 108.66 44.5761 108.463C44.2472 108.259 43.9907 107.976 43.8066 107.614C43.6224 107.252 43.5303 106.835 43.5303 106.361C43.5303 105.881 43.6224 105.46 43.8066 105.098C43.9907 104.737 44.2472 104.457 44.5761 104.26C44.9115 104.056 45.3028 103.954 45.75 103.954C46.171 103.954 46.536 104.063 46.8451 104.28C47.1608 104.497 47.3746 104.786 47.4864 105.148H47.437V104.043H48.246V108.492C48.246 108.972 48.1572 109.38 47.9796 109.715C47.8021 110.051 47.5423 110.307 47.2003 110.485C46.8583 110.663 46.4406 110.751 45.9474 110.751ZM45.898 108.078C46.365 108.078 46.7366 107.923 47.0128 107.614C47.2891 107.298 47.4272 106.878 47.4272 106.351C47.4272 105.832 47.2891 105.417 47.0128 105.108C46.7366 104.799 46.365 104.645 45.898 104.645C45.4311 104.645 45.0595 104.799 44.7832 105.108C44.5136 105.417 44.3788 105.832 44.3788 106.351C44.3788 106.878 44.5136 107.298 44.7832 107.614C45.0595 107.923 45.4311 108.078 45.898 108.078ZM52.1454 108.976C51.6192 108.976 51.1654 108.877 50.7839 108.68C50.4025 108.476 50.1065 108.186 49.8961 107.811C49.6922 107.437 49.5902 106.989 49.5902 106.47C49.5902 105.976 49.6889 105.542 49.8862 105.168C50.0835 104.793 50.3597 104.497 50.7149 104.28C51.07 104.063 51.4844 103.954 51.9579 103.954C52.4183 103.954 52.8064 104.056 53.1221 104.26C53.4443 104.457 53.691 104.737 53.862 105.098C54.033 105.454 54.1185 105.881 54.1185 106.381V106.677H50.2216V106.105H53.5759L53.3983 106.263C53.3983 105.736 53.2766 105.329 53.0333 105.039C52.7899 104.743 52.4348 104.595 51.9678 104.595C51.6455 104.595 51.366 104.671 51.1292 104.822C50.899 104.967 50.7182 105.174 50.5866 105.444C50.4617 105.707 50.3992 106.019 50.3992 106.381V106.46C50.3992 106.861 50.4683 107.197 50.6064 107.466C50.7445 107.736 50.9451 107.94 51.2082 108.078C51.4712 108.216 51.7869 108.285 52.1552 108.285C52.4315 108.285 52.7044 108.246 52.9741 108.167C53.2437 108.088 53.5002 107.95 53.7436 107.752L54.0297 108.344C53.7995 108.548 53.5134 108.706 53.1714 108.818C52.8294 108.923 52.4874 108.976 52.1454 108.976ZM58.2035 108.887V101.932H59.0519V104.99H63.1658V101.932H64.0142V108.887H63.1658V105.73H59.0519V108.887H58.2035ZM67.5485 108.976C67.1539 108.976 66.8218 108.903 66.5521 108.759C66.289 108.614 66.0917 108.4 65.9602 108.117C65.8286 107.828 65.7629 107.473 65.7629 107.052V104.043H66.6014V107.022C66.6014 107.285 66.6376 107.512 66.71 107.703C66.7889 107.887 66.9105 108.028 67.075 108.127C67.2394 108.219 67.4531 108.265 67.7162 108.265C67.9925 108.265 68.2358 108.203 68.4463 108.078C68.6633 107.946 68.8343 107.769 68.9593 107.545C69.0842 107.321 69.1467 107.068 69.1467 106.785V104.043H69.9853V108.887H69.1862V107.802H69.2454C69.1007 108.176 68.8803 108.466 68.5844 108.67C68.295 108.874 67.9497 108.976 67.5485 108.976ZM71.6407 108.887V104.043H72.4299V105.118H72.3806C72.4661 104.888 72.5844 104.687 72.7357 104.516C72.8936 104.339 73.081 104.201 73.298 104.102C73.5151 104.003 73.7551 103.954 74.0182 103.954C74.4326 103.954 74.7713 104.059 75.0344 104.27C75.304 104.474 75.475 104.76 75.5474 105.128H75.4783C75.6033 104.786 75.8137 104.507 76.1097 104.289C76.4056 104.066 76.7641 103.954 77.185 103.954C77.5467 103.954 77.8493 104.026 78.0926 104.171C78.3426 104.309 78.53 104.523 78.655 104.812C78.7799 105.095 78.8424 105.454 78.8424 105.888V108.887H78.0137V105.937C78.0137 105.51 77.9348 105.191 77.7769 104.98C77.6257 104.77 77.3626 104.664 76.9877 104.664C76.7115 104.664 76.4714 104.73 76.2675 104.862C76.0702 104.987 75.919 105.161 75.8137 105.385C75.7085 105.608 75.6559 105.871 75.6559 106.174V108.887H74.8272V105.937C74.8272 105.51 74.745 105.191 74.5805 104.98C74.4161 104.77 74.1596 104.664 73.811 104.664C73.5348 104.664 73.2948 104.733 73.0909 104.872C72.8936 105.003 72.739 105.181 72.6272 105.404C72.522 105.628 72.4693 105.878 72.4693 106.154V108.887H71.6407ZM80.3857 102.869V101.932H81.4117V102.869H80.3857ZM80.4844 108.887V104.043H81.3229V108.887H80.4844ZM84.8447 108.976C84.4106 108.976 84.0291 108.874 83.7003 108.67C83.3714 108.459 83.1149 108.167 82.9308 107.792C82.7532 107.41 82.6644 106.966 82.6644 106.46C82.6644 105.953 82.7532 105.516 82.9308 105.148C83.1149 104.773 83.3681 104.48 83.6904 104.27C84.0192 104.059 84.404 103.954 84.8447 103.954C85.2656 103.954 85.6273 104.059 85.9298 104.27C86.239 104.474 86.456 104.753 86.581 105.108H86.5218V101.932H87.3702V108.887H86.5711V107.782H86.6106C86.4856 108.15 86.2686 108.443 85.9594 108.66C85.6503 108.87 85.2787 108.976 84.8447 108.976ZM85.0222 108.295C85.4892 108.295 85.8575 108.134 86.1272 107.811C86.4034 107.489 86.5415 107.042 86.5415 106.47C86.5415 105.891 86.4034 105.444 86.1272 105.128C85.8575 104.806 85.4925 104.645 85.0321 104.645C84.5651 104.645 84.1935 104.806 83.9173 105.128C83.6477 105.444 83.5128 105.891 83.5128 106.47C83.5128 107.042 83.6477 107.489 83.9173 107.811C84.1935 108.134 84.5618 108.295 85.0222 108.295ZM88.9023 102.869V101.932H89.9283V102.869H88.9023ZM89.001 108.887V104.043H89.8396V108.887H89.001ZM93.4698 108.976C92.891 108.976 92.457 108.824 92.1676 108.522C91.8782 108.213 91.7335 107.775 91.7335 107.21V104.724H90.7667V104.043H91.7434V102.593H92.572V104.043H94.2097V104.724H92.572V107.131C92.572 107.506 92.651 107.788 92.8088 107.979C92.9732 108.163 93.233 108.255 93.5882 108.255C93.7066 108.255 93.825 108.242 93.9433 108.216C94.0617 108.183 94.1735 108.15 94.2788 108.117L94.4169 108.768C94.3116 108.828 94.1702 108.877 93.9927 108.916C93.8151 108.956 93.6408 108.976 93.4698 108.976ZM95.9125 110.663L96.8201 108.611V109.094L94.6793 104.043H95.5869L97.2344 108.157H97.0865L98.7439 104.043H99.6219L96.8004 110.663H95.9125Z" fill="#231F20"/>
<path d="M29.5507 41.374C29.5507 42.8519 28.9635 44.2692 27.9186 45.3142C26.8736 46.3592 25.4563 46.9463 23.9785 46.9463C22.5006 46.9463 21.0833 46.3592 20.0383 45.3142C18.9933 44.2692 18.4063 42.8519 18.4062 41.374C18.4062 38.2981 23.9785 30.5373 23.9785 30.5373C23.9785 30.5373 29.5507 38.2981 29.5507 41.374Z" stroke="#835F5F" stroke-width="1.60435" stroke-miterlimit="10"/>
<path d="M45.3787 45.0535C45.3787 46.6819 44.7318 48.2437 43.5803 49.3952C42.4289 50.5467 40.8671 51.1936 39.2387 51.1936C37.6102 51.1936 36.0485 50.5467 34.897 49.3952C33.7455 48.2437 33.0986 46.6819 33.0986 45.0535C33.0986 41.6581 39.2387 33.1046 39.2387 33.1046C39.2387 33.1046 45.3787 41.6581 45.3787 45.0535Z" stroke="#835F5F" stroke-width="1.60435" stroke-miterlimit="10"/>
<path d="M36.5058 28.9406C36.5058 29.8443 36.1468 30.7109 35.5078 31.3499C34.8689 31.9889 34.0023 32.3478 33.0986 32.3478C32.195 32.3478 31.3283 31.9889 30.6893 31.3499C30.0503 30.7109 29.6914 29.8443 29.6914 28.9406C29.6914 27.0596 33.0986 22.3155 33.0986 22.3155C33.0986 22.3155 36.5058 27.0596 36.5058 28.9406Z" stroke="#835F5F" stroke-width="1.60435" stroke-miterlimit="10"/>
</svg>
