<svg width="155" height="129" viewBox="0 0 155 129" fill="none" xmlns="http://www.w3.org/2000/svg">
<path d="M0.904297 13.4784C0.904297 6.0345 6.9388 0 14.3827 0H140.569C148.013 0 154.047 6.0345 154.047 13.4784V115.162C154.047 122.605 148.013 128.64 140.569 128.64H14.3827C6.93879 128.64 0.904297 122.605 0.904297 115.162V13.4784Z" fill="white"/>
<path d="M17.2148 87.5074V84.813L23.5103 78.9839C24.0457 78.4657 24.4947 77.9994 24.8574 77.5849C25.2259 77.1704 25.5051 76.7645 25.6951 76.3673C25.8851 75.9643 25.9801 75.5296 25.9801 75.0633C25.9801 74.5451 25.8621 74.0989 25.626 73.7247C25.39 73.3447 25.0676 73.054 24.6588 72.8525C24.25 72.6453 23.7866 72.5416 23.2684 72.5416C22.7273 72.5416 22.2552 72.651 21.8522 72.8698C21.4492 73.0886 21.1383 73.4023 20.9195 73.8111C20.7008 74.2198 20.5914 74.7063 20.5914 75.2705H17.0421C17.0421 74.1133 17.304 73.1087 17.8279 72.2566C18.3518 71.4046 19.0859 70.7454 20.03 70.2791C20.9742 69.8127 22.0623 69.5796 23.2944 69.5796C24.5609 69.5796 25.6634 69.8041 26.6019 70.2531C27.546 70.6964 28.2801 71.3125 28.804 72.1012C29.3279 72.8899 29.5898 73.7938 29.5898 74.8128C29.5898 75.4807 29.4574 76.1399 29.1926 76.7904C28.9335 77.441 28.4701 78.1635 27.8022 78.958C27.1344 79.7467 26.1931 80.6938 24.9783 81.7992L22.3962 84.3294V84.4503H29.823V87.5074H17.2148ZM39.467 87.896C37.9816 87.8902 36.7035 87.5247 35.6327 86.7993C34.5676 86.0738 33.7472 85.0232 33.1715 83.6472C32.6015 82.2712 32.3194 80.6161 32.3252 78.6816C32.3252 76.753 32.6102 75.1093 33.1801 73.7506C33.7559 72.3919 34.5763 71.3585 35.6413 70.6504C36.7122 69.9365 37.9874 69.5796 39.467 69.5796C40.9466 69.5796 42.2189 69.9365 43.284 70.6504C44.3548 71.3643 45.1781 72.4006 45.7538 73.7593C46.3295 75.1122 46.6145 76.753 46.6087 78.6816C46.6087 80.6218 46.3209 82.2799 45.7452 83.6558C45.1752 85.0318 44.3577 86.0825 43.2926 86.8079C42.2275 87.5333 40.9523 87.896 39.467 87.896ZM39.467 84.7958C40.4802 84.7958 41.2891 84.2862 41.8936 83.2672C42.4981 82.2482 42.7975 80.7197 42.7917 78.6816C42.7917 77.3402 42.6536 76.2233 42.3772 75.331C42.1066 74.4386 41.7209 73.7679 41.22 73.3188C40.7249 72.8698 40.1406 72.6453 39.467 72.6453C38.4595 72.6453 37.6535 73.149 37.049 74.1565C36.4445 75.164 36.1393 76.6724 36.1336 78.6816C36.1336 80.0403 36.2689 81.1745 36.5394 82.0841C36.8158 82.988 37.2044 83.6674 37.7053 84.1222C38.2061 84.5712 38.7934 84.7958 39.467 84.7958ZM50.7474 87.7319C50.1775 87.7319 49.6881 87.5304 49.2793 87.1274C48.8763 86.7187 48.6748 86.2293 48.6748 85.6593C48.6748 85.0951 48.8763 84.6115 49.2793 84.2085C49.6881 83.8055 50.1775 83.604 50.7474 83.604C51.3001 83.604 51.7837 83.8055 52.1982 84.2085C52.6127 84.6115 52.82 85.0951 52.82 85.6593C52.82 86.0393 52.7221 86.3876 52.5264 86.7043C52.3364 87.0151 52.086 87.2656 51.7751 87.4556C51.4642 87.6398 51.1216 87.7319 50.7474 87.7319ZM62.0279 87.896C60.5425 87.8902 59.2644 87.5247 58.1936 86.7993C57.1285 86.0738 56.3081 85.0232 55.7324 83.6472C55.1624 82.2712 54.8803 80.6161 54.8861 78.6816C54.8861 76.753 55.1711 75.1093 55.741 73.7506C56.3168 72.3919 57.1372 71.3585 58.2022 70.6504C59.2731 69.9365 60.5483 69.5796 62.0279 69.5796C63.5075 69.5796 64.7798 69.9365 65.8449 70.6504C66.9157 71.3643 67.739 72.4006 68.3147 73.7593C68.8904 75.1122 69.1754 76.753 69.1696 78.6816C69.1696 80.6218 68.8818 82.2799 68.3061 83.6558C67.7361 85.0318 66.9186 86.0825 65.8535 86.8079C64.7884 87.5333 63.5132 87.896 62.0279 87.896ZM62.0279 84.7958C63.0411 84.7958 63.85 84.2862 64.4545 83.2672C65.059 82.2482 65.3584 80.7197 65.3526 78.6816C65.3526 77.3402 65.2145 76.2233 64.9381 75.331C64.6675 74.4386 64.2818 73.7679 63.7809 73.3188C63.2858 72.8698 62.7015 72.6453 62.0279 72.6453C61.0204 72.6453 60.2144 73.149 59.6099 74.1565C59.0054 75.164 58.7002 76.6724 58.6945 78.6816C58.6945 80.0403 58.8298 81.1745 59.1004 82.0841C59.3767 82.988 59.7653 83.6674 60.2662 84.1222C60.7671 84.5712 61.3543 84.7958 62.0279 84.7958ZM71.5682 84.3985V81.4537L78.9518 69.8214H81.4907V73.8974H79.9881L75.3334 81.2637V81.4019H85.8259V84.3985H71.5682ZM80.0572 87.5074V83.5004L80.1263 82.1964V69.8214H83.6324V87.5074H80.0572Z" fill="#231F20"/>
<path d="M16.0378 108.887L19.096 101.931H19.8458L22.9041 108.887H22.0261L21.1678 106.904L21.5821 107.15H17.3498L17.7642 106.904L16.9158 108.887H16.0378ZM19.4512 102.908L17.8826 106.617L17.6458 106.43H21.296L21.0592 106.617L19.4808 102.908H19.4512ZM25.1108 108.887L23.0588 104.043H23.9664L25.604 108.147H25.4561L27.1233 104.043H27.9915L25.9296 108.887H25.1108ZM31.1525 108.975C30.6263 108.975 30.1725 108.877 29.7911 108.679C29.4096 108.475 29.1136 108.186 28.9032 107.811C28.6993 107.436 28.5973 106.989 28.5973 106.469C28.5973 105.976 28.696 105.542 28.8933 105.167C29.0906 104.792 29.3668 104.496 29.722 104.279C30.0772 104.062 30.4915 103.954 30.965 103.954C31.4254 103.954 31.8135 104.056 32.1292 104.26C32.4514 104.457 32.6981 104.736 32.8691 105.098C33.0401 105.453 33.1256 105.881 33.1256 106.381V106.677H29.2287V106.104H32.583L32.4054 106.262C32.4054 105.736 32.2837 105.328 32.0404 105.039C31.797 104.743 31.4419 104.595 30.9749 104.595C30.6526 104.595 30.3731 104.671 30.1363 104.822C29.9062 104.967 29.7253 105.174 29.5937 105.443C29.4688 105.707 29.4063 106.019 29.4063 106.381V106.46C29.4063 106.861 29.4754 107.196 29.6135 107.466C29.7516 107.736 29.9522 107.939 30.2153 108.078C30.4783 108.216 30.794 108.285 31.1623 108.285C31.4386 108.285 31.7115 108.245 31.9812 108.166C32.2508 108.087 32.5073 107.949 32.7507 107.752L33.0368 108.344C32.8066 108.548 32.5205 108.706 32.1785 108.817C31.8365 108.923 31.4945 108.975 31.1525 108.975ZM34.433 108.887V104.043H35.2222V105.177H35.1729C35.2913 104.802 35.4918 104.513 35.7747 104.309C36.064 104.105 36.4291 103.99 36.8697 103.964L37.2446 103.934L37.3137 104.684L36.702 104.743C36.2482 104.782 35.8963 104.93 35.6464 105.187C35.4031 105.437 35.2814 105.766 35.2814 106.174V108.887H34.433ZM39.7974 108.975C39.462 108.975 39.1595 108.913 38.8898 108.788C38.6202 108.656 38.4064 108.479 38.2486 108.255C38.0973 108.032 38.0217 107.782 38.0217 107.505C38.0217 107.144 38.1203 106.858 38.3176 106.647C38.5149 106.437 38.8273 106.289 39.2548 106.203C39.6823 106.111 40.2479 106.065 40.9517 106.065H41.5337V106.627H40.9813C40.5867 106.627 40.2545 106.64 39.9849 106.667C39.7152 106.693 39.4982 106.739 39.3338 106.805C39.1693 106.864 39.0509 106.946 38.9786 107.052C38.9063 107.157 38.8701 107.292 38.8701 107.456C38.8701 107.726 38.9687 107.939 39.166 108.097C39.3634 108.255 39.6231 108.334 39.9454 108.334C40.2216 108.334 40.4683 108.272 40.6853 108.147C40.9024 108.015 41.0734 107.841 41.1983 107.624C41.3299 107.4 41.3956 107.157 41.3956 106.894V105.769C41.3956 105.374 41.297 105.088 41.0997 104.911C40.9089 104.727 40.613 104.635 40.2118 104.635C39.9224 104.635 39.6396 104.677 39.3634 104.763C39.0871 104.842 38.801 104.973 38.5051 105.157L38.2288 104.536C38.413 104.417 38.6169 104.316 38.8405 104.23C39.0641 104.145 39.2976 104.079 39.5409 104.033C39.7909 103.98 40.0309 103.954 40.2611 103.954C40.682 103.954 41.0372 104.023 41.3266 104.161C41.616 104.293 41.8363 104.496 41.9875 104.773C42.1388 105.049 42.2145 105.404 42.2145 105.838V108.887H41.445V107.791H41.4844C41.4121 108.022 41.297 108.226 41.1391 108.403C40.9879 108.581 40.7971 108.722 40.5669 108.827C40.3433 108.926 40.0868 108.975 39.7974 108.975ZM45.9474 110.751C45.5462 110.751 45.1581 110.695 44.7832 110.583C44.4084 110.472 44.0828 110.31 43.8066 110.1L44.0828 109.469C44.2735 109.6 44.4675 109.709 44.6649 109.794C44.8622 109.88 45.066 109.942 45.2765 109.982C45.487 110.028 45.7007 110.051 45.9178 110.051C46.411 110.051 46.7892 109.922 47.0523 109.666C47.3154 109.416 47.4469 109.054 47.4469 108.581V107.584H47.4765C47.3713 107.939 47.1608 108.226 46.8451 108.443C46.5294 108.653 46.1644 108.758 45.75 108.758C45.3028 108.758 44.9115 108.66 44.5761 108.462C44.2472 108.258 43.9907 107.976 43.8066 107.614C43.6224 107.252 43.5303 106.835 43.5303 106.361C43.5303 105.881 43.6224 105.46 43.8066 105.098C43.9907 104.736 44.2472 104.457 44.5761 104.26C44.9115 104.056 45.3028 103.954 45.75 103.954C46.171 103.954 46.536 104.062 46.8451 104.279C47.1608 104.496 47.3746 104.786 47.4864 105.148H47.437V104.043H48.246V108.492C48.246 108.972 48.1572 109.38 47.9796 109.715C47.8021 110.051 47.5423 110.307 47.2003 110.485C46.8583 110.662 46.4406 110.751 45.9474 110.751ZM45.898 108.078C46.365 108.078 46.7366 107.923 47.0128 107.614C47.2891 107.298 47.4272 106.877 47.4272 106.351C47.4272 105.832 47.2891 105.417 47.0128 105.108C46.7366 104.799 46.365 104.644 45.898 104.644C45.4311 104.644 45.0595 104.799 44.7832 105.108C44.5136 105.417 44.3788 105.832 44.3788 106.351C44.3788 106.877 44.5136 107.298 44.7832 107.614C45.0595 107.923 45.4311 108.078 45.898 108.078ZM52.1454 108.975C51.6192 108.975 51.1654 108.877 50.7839 108.679C50.4025 108.475 50.1065 108.186 49.8961 107.811C49.6922 107.436 49.5902 106.989 49.5902 106.469C49.5902 105.976 49.6889 105.542 49.8862 105.167C50.0835 104.792 50.3597 104.496 50.7149 104.279C51.07 104.062 51.4844 103.954 51.9579 103.954C52.4183 103.954 52.8064 104.056 53.1221 104.26C53.4443 104.457 53.691 104.736 53.862 105.098C54.033 105.453 54.1185 105.881 54.1185 106.381V106.677H50.2216V106.104H53.5759L53.3983 106.262C53.3983 105.736 53.2766 105.328 53.0333 105.039C52.7899 104.743 52.4348 104.595 51.9678 104.595C51.6455 104.595 51.366 104.671 51.1292 104.822C50.899 104.967 50.7182 105.174 50.5866 105.443C50.4617 105.707 50.3992 106.019 50.3992 106.381V106.46C50.3992 106.861 50.4683 107.196 50.6064 107.466C50.7445 107.736 50.9451 107.939 51.2082 108.078C51.4712 108.216 51.7869 108.285 52.1552 108.285C52.4315 108.285 52.7044 108.245 52.9741 108.166C53.2437 108.087 53.5002 107.949 53.7436 107.752L54.0297 108.344C53.7995 108.548 53.5134 108.706 53.1714 108.817C52.8294 108.923 52.4874 108.975 52.1454 108.975ZM58.2035 108.887V101.931H61.0151C61.7649 101.931 62.3404 102.106 62.7416 102.454C63.1428 102.796 63.3434 103.29 63.3434 103.934C63.3434 104.329 63.2612 104.667 63.0967 104.95C62.9389 105.233 62.7054 105.453 62.3963 105.611C62.0938 105.769 61.732 105.858 61.3111 105.878L61.3703 105.818H61.5183C61.7287 105.838 61.9129 105.907 62.0707 106.026C62.2286 106.144 62.3766 106.335 62.5147 106.598L63.738 108.887H62.8107L61.6268 106.687C61.5281 106.496 61.4196 106.351 61.3012 106.252C61.1829 106.147 61.0447 106.075 60.8869 106.035C60.7356 105.996 60.5515 105.976 60.3344 105.976H59.0519V108.887H58.2035ZM59.0519 105.286H60.9264C61.4591 105.286 61.8537 105.174 62.1102 104.95C62.3733 104.727 62.5048 104.394 62.5048 103.954C62.5048 103.513 62.3733 103.188 62.1102 102.977C61.8471 102.76 61.4459 102.652 60.9066 102.652H59.0519V105.286ZM66.4841 108.975C66.1487 108.975 65.8462 108.913 65.5765 108.788C65.3069 108.656 65.0931 108.479 64.9353 108.255C64.784 108.032 64.7084 107.782 64.7084 107.505C64.7084 107.144 64.807 106.858 65.0043 106.647C65.2016 106.437 65.514 106.289 65.9415 106.203C66.369 106.111 66.9346 106.065 67.6384 106.065H68.2204V106.627H67.668C67.2734 106.627 66.9412 106.64 66.6716 106.667C66.4019 106.693 66.1849 106.739 66.0205 106.805C65.856 106.864 65.7376 106.946 65.6653 107.052C65.593 107.157 65.5568 107.292 65.5568 107.456C65.5568 107.726 65.6554 107.939 65.8527 108.097C66.05 108.255 66.3098 108.334 66.6321 108.334C66.9083 108.334 67.155 108.272 67.372 108.147C67.5891 108.015 67.7601 107.841 67.885 107.624C68.0166 107.4 68.0823 107.157 68.0823 106.894V105.769C68.0823 105.374 67.9837 105.088 67.7864 104.911C67.5956 104.727 67.2997 104.635 66.8985 104.635C66.6091 104.635 66.3263 104.677 66.05 104.763C65.7738 104.842 65.4877 104.973 65.1918 105.157L64.9155 104.536C65.0997 104.417 65.3036 104.316 65.5272 104.23C65.7508 104.145 65.9843 104.079 66.2276 104.033C66.4776 103.98 66.7176 103.954 66.9478 103.954C67.3687 103.954 67.7239 104.023 68.0133 104.161C68.3027 104.293 68.523 104.496 68.6742 104.773C68.8255 105.049 68.9012 105.404 68.9012 105.838V108.887H68.1317V107.791H68.1711C68.0988 108.022 67.9837 108.226 67.8258 108.403C67.6746 108.581 67.4838 108.722 67.2536 108.827C67.03 108.926 66.7735 108.975 66.4841 108.975ZM70.4143 102.869V101.931H71.4403V102.869H70.4143ZM70.513 108.887V104.043H71.3516V108.887H70.513ZM72.989 108.887V104.043H73.7881V105.108H73.7388C73.8834 104.74 74.1136 104.457 74.4293 104.26C74.745 104.056 75.1035 103.954 75.5047 103.954C75.8993 103.954 76.2248 104.026 76.4813 104.171C76.7444 104.309 76.9417 104.523 77.0733 104.812C77.2048 105.095 77.2706 105.453 77.2706 105.887V108.887H76.432V105.937C76.432 105.661 76.3925 105.43 76.3136 105.246C76.2413 105.055 76.1229 104.911 75.9585 104.812C75.794 104.713 75.5803 104.664 75.3172 104.664C75.0213 104.664 74.7615 104.73 74.5378 104.861C74.3142 104.986 74.1399 105.161 74.015 105.384C73.89 105.608 73.8275 105.864 73.8275 106.154V108.887H72.989ZM79.1613 108.887V104.704H78.1847V104.043H79.3882L79.1613 104.269V103.924C79.1613 103.286 79.329 102.803 79.6645 102.474C80.0065 102.139 80.5129 101.954 81.1837 101.922L81.6376 101.892L81.7066 102.563L81.1739 102.602C80.924 102.615 80.7102 102.665 80.5326 102.75C80.3616 102.836 80.2301 102.967 80.138 103.145C80.0459 103.316 79.9999 103.543 79.9999 103.826V104.171L79.8716 104.043H81.4698V104.704H79.9999V108.887H79.1613ZM83.9894 108.975C83.654 108.975 83.3515 108.913 83.0818 108.788C82.8122 108.656 82.5984 108.479 82.4406 108.255C82.2893 108.032 82.2137 107.782 82.2137 107.505C82.2137 107.144 82.3123 106.858 82.5096 106.647C82.7069 106.437 83.0194 106.289 83.4469 106.203C83.8744 106.111 84.44 106.065 85.1437 106.065H85.7258V106.627H85.1733C84.7787 106.627 84.4465 106.64 84.1769 106.667C83.9072 106.693 83.6902 106.739 83.5258 106.805C83.3614 106.864 83.243 106.946 83.1706 107.052C83.0983 107.157 83.0621 107.292 83.0621 107.456C83.0621 107.726 83.1608 107.939 83.3581 108.097C83.5554 108.255 83.8152 108.334 84.1374 108.334C84.4137 108.334 84.6603 108.272 84.8773 108.147C85.0944 108.015 85.2654 107.841 85.3903 107.624C85.5219 107.4 85.5876 107.157 85.5876 106.894V105.769C85.5876 105.374 85.489 105.088 85.2917 104.911C85.101 104.727 84.805 104.635 84.4038 104.635C84.1144 104.635 83.8316 104.677 83.5554 104.763C83.2791 104.842 82.993 104.973 82.6971 105.157L82.4208 104.536C82.605 104.417 82.8089 104.316 83.0325 104.23C83.2561 104.145 83.4896 104.079 83.7329 104.033C83.9829 103.98 84.2229 103.954 84.4531 103.954C84.874 103.954 85.2292 104.023 85.5186 104.161C85.808 104.293 86.0283 104.496 86.1796 104.773C86.3308 105.049 86.4065 105.404 86.4065 105.838V108.887H85.637V107.791H85.6764C85.6041 108.022 85.489 108.226 85.3311 108.403C85.1799 108.581 84.9891 108.722 84.759 108.827C84.5353 108.926 84.2788 108.975 83.9894 108.975ZM89.4981 108.975C89.018 108.975 88.6497 108.834 88.3932 108.551C88.1433 108.268 88.0183 107.87 88.0183 107.357V101.931H88.8569V107.278C88.8569 107.489 88.8865 107.67 88.9457 107.821C89.0114 107.972 89.1035 108.084 89.2219 108.156C89.3403 108.229 89.485 108.265 89.656 108.265C89.7415 108.265 89.8237 108.262 89.9026 108.255C89.9881 108.242 90.0703 108.226 90.1492 108.206V108.887C90.044 108.913 89.9388 108.933 89.8335 108.946C89.7283 108.965 89.6165 108.975 89.4981 108.975ZM92.5522 108.975C92.072 108.975 91.7037 108.834 91.4472 108.551C91.1973 108.268 91.0723 107.87 91.0723 107.357V101.931H91.9109V107.278C91.9109 107.489 91.9405 107.67 91.9997 107.821C92.0655 107.972 92.1575 108.084 92.2759 108.156C92.3943 108.229 92.539 108.265 92.71 108.265C92.7955 108.265 92.8777 108.262 92.9566 108.255C93.0421 108.242 93.1244 108.226 93.2033 108.206V108.887C93.098 108.913 92.9928 108.933 92.8876 108.946C92.7824 108.965 92.6705 108.975 92.5522 108.975Z" fill="#231F20"/>
<path d="M24.7245 47.589C24.7245 48.3772 24.4115 49.133 23.8542 49.6903C23.2969 50.2476 22.541 50.5607 21.7529 50.5607C20.9648 50.5607 20.2089 50.2476 19.6516 49.6903C19.0943 49.133 18.7813 48.3772 18.7813 47.589C18.7812 45.9438 21.7529 41.6712 21.7529 41.6712C21.7529 41.6712 24.7245 45.9438 24.7245 47.589Z" stroke="#835F5F" stroke-width="1.31265"/>
<path d="M34.5092 47.589C34.5358 47.9948 34.4789 48.4017 34.3419 48.7845C34.2049 49.1674 33.9909 49.5181 33.7129 49.8149C33.4349 50.1117 33.099 50.3483 32.7259 50.5101C32.3529 50.6718 31.9506 50.7552 31.5439 50.7552C31.1373 50.7552 30.735 50.6718 30.3619 50.5101C29.9888 50.3483 29.6529 50.1117 29.3749 49.8149C29.097 49.5181 28.8829 49.1674 28.7459 48.7845C28.609 48.4017 28.552 47.9948 28.5786 47.589C28.5786 45.9438 31.5375 41.6712 31.5375 41.6712C31.5375 41.6712 34.5092 45.9438 34.5092 47.589Z" stroke="#835F5F" stroke-width="1.31265"/>
<path d="M44.4672 47.589C44.4938 47.9948 44.4369 48.4017 44.2999 48.7845C44.163 49.1674 43.9489 49.5181 43.6709 49.8149C43.393 50.1117 43.057 50.3483 42.6839 50.5101C42.3109 50.6718 41.9086 50.7552 41.5019 50.7552C41.0953 50.7552 40.693 50.6718 40.3199 50.5101C39.9468 50.3483 39.6109 50.1117 39.3329 49.8149C39.055 49.5181 38.8409 49.1674 38.7039 48.7845C38.567 48.4017 38.51 47.9948 38.5367 47.589C38.5367 45.9438 41.5083 41.6712 41.5083 41.6712C41.5083 41.6712 44.4672 45.9438 44.4672 47.589Z" stroke="#835F5F" stroke-width="1.31265"/>
<path d="M19.4063 39.2103H43.7661C43.7661 39.2103 48.8677 39.2996 48.8677 34.1088C48.8677 28.918 43.1922 28.4334 43.1922 28.4334C43.1922 28.4334 41.7383 22.7579 36.3817 22.7579C34.9135 22.7029 33.4605 23.0717 32.1962 23.8203C30.932 24.5689 29.91 25.6656 29.2523 26.9794C28.6865 26.507 28.0014 26.1999 27.2723 26.0918C26.5432 25.9838 25.7985 26.0791 25.1201 26.3672C24.4244 26.6326 23.8254 27.1024 23.402 27.7148C22.9785 28.3272 22.7505 29.0535 22.7479 29.798C22.7479 29.798 16.371 28.3951 15.0956 33.7517C13.8202 39.1083 19.4063 39.2103 19.4063 39.2103Z" stroke="#835F5F" stroke-width="1.31265"/>
</svg>
