<svg width="155" height="129" viewBox="0 0 155 129" fill="none" xmlns="http://www.w3.org/2000/svg">
<path d="M0.904297 13.4784C0.904297 6.0345 6.9388 0 14.3827 0H140.569C148.013 0 154.047 6.0345 154.047 13.4784V115.162C154.047 122.605 148.013 128.64 140.569 128.64H14.3827C6.93879 128.64 0.904297 122.605 0.904297 115.162V13.4784Z" fill="white"/>
<path d="M39.22 28.3563C39.2217 27.0939 38.8979 25.8524 38.28 24.7516C37.662 23.6507 36.7707 22.7277 35.6921 22.0717C34.6136 21.4157 33.3841 21.0488 32.1224 21.0064C30.8607 20.964 29.6094 21.2475 28.4892 21.8296C27.3689 22.4117 26.4177 23.2727 25.7272 24.3296C25.0367 25.3864 24.6303 26.6034 24.5472 27.8631C24.4641 29.1228 24.7071 30.3826 25.2527 31.521C25.7983 32.6594 26.6282 33.638 27.6622 34.3622V48.5039C27.6622 49.6214 28.1061 50.6931 28.8963 51.4832C29.6865 52.2734 30.7582 52.7173 31.8756 52.7173C32.9931 52.7173 34.0648 52.2734 34.855 51.4832C35.6451 50.6931 36.089 49.6214 36.089 48.5039V34.4088C37.0625 33.7294 37.8562 32.8234 38.4016 31.769C38.9471 30.7146 39.2279 29.5434 39.22 28.3563Z" stroke="#835F5F" stroke-width="1.16393" stroke-miterlimit="10" stroke-linecap="round"/>
<path d="M31.8774 24.8988C33.8958 24.8988 35.5321 26.5351 35.5321 28.5536C35.5321 30.572 33.8958 32.2083 31.8774 32.2083C29.8589 32.2083 28.2227 30.572 28.2227 28.5536C28.2227 26.5351 29.8589 24.8988 31.8774 24.8988Z" stroke="#835F5F" stroke-width="1.16393" stroke-miterlimit="10" stroke-linecap="round"/>
<path d="M31.876 42.964V32.2093" stroke="#835F5F" stroke-width="1.16393" stroke-miterlimit="10" stroke-linecap="round"/>
<path d="M23.7521 87.7495C22.4624 87.7495 21.3139 87.5278 20.3064 87.0845C19.3046 86.6354 18.513 86.0194 17.9316 85.2365C17.3558 84.4477 17.0593 83.5381 17.0421 82.5076H20.8073C20.8303 82.9393 20.9713 83.3193 21.2304 83.6475C21.4952 83.9699 21.8464 84.2203 22.284 84.3988C22.7215 84.5773 23.2138 84.6665 23.7607 84.6665C24.3306 84.6665 24.8344 84.5657 25.2719 84.3642C25.7095 84.1627 26.052 83.8835 26.2996 83.5266C26.5472 83.1696 26.6709 82.758 26.6709 82.2917C26.6709 81.8196 26.5385 81.4022 26.2737 81.0395C26.0146 80.671 25.6404 80.3832 25.151 80.1759C24.6674 79.9686 24.0917 79.865 23.4239 79.865H21.7745V77.1188H23.4239C23.9881 77.1188 24.4861 77.021 24.9179 76.8252C25.3554 76.6295 25.6951 76.3589 25.9369 76.0135C26.1787 75.6623 26.2996 75.2535 26.2996 74.7872C26.2996 74.3439 26.1931 73.9553 25.9801 73.6214C25.7728 73.2817 25.4792 73.0169 25.0992 72.8269C24.725 72.6369 24.2875 72.5419 23.7866 72.5419C23.28 72.5419 22.8165 72.634 22.3962 72.8182C21.976 72.9967 21.6392 73.2529 21.3859 73.5868C21.1325 73.9207 20.9972 74.3122 20.98 74.7613H17.3961C17.4134 73.7423 17.7041 72.8441 18.2683 72.0669C18.8326 71.2897 19.5925 70.6823 20.5482 70.2448C21.5096 69.8015 22.5949 69.5798 23.8039 69.5798C25.0244 69.5798 26.0923 69.8015 27.0077 70.2448C27.9231 70.6881 28.6341 71.2868 29.1408 72.041C29.6532 72.7895 29.9065 73.63 29.9007 74.5627C29.9065 75.5529 29.5985 76.3791 28.9767 77.0411C28.3607 77.7032 27.5575 78.1235 26.5673 78.3019V78.4401C27.8684 78.6071 28.8587 79.059 29.538 79.7959C30.2231 80.5271 30.5628 81.4425 30.557 82.5421C30.5628 83.5496 30.272 84.4448 29.6848 85.2278C29.1033 86.0108 28.3002 86.6268 27.2754 87.0759C26.2507 87.5249 25.0762 87.7495 23.7521 87.7495ZM40.1794 87.8963C38.6941 87.8905 37.416 87.5249 36.3451 86.7995C35.2801 86.0741 34.4597 85.0234 33.884 83.6475C33.314 82.2715 33.0319 80.6163 33.0376 78.6819C33.0376 76.7533 33.3226 75.1096 33.8926 73.7509C34.4683 72.3922 35.2887 71.3588 36.3538 70.6507C37.4246 69.9368 38.6998 69.5798 40.1794 69.5798C41.659 69.5798 42.9313 69.9368 43.9964 70.6507C45.0673 71.3646 45.8905 72.4008 46.4662 73.7595C47.042 75.1125 47.3269 76.7533 47.3212 78.6819C47.3212 80.6221 47.0333 82.2801 46.4576 83.6561C45.8876 85.0321 45.0701 86.0828 44.0051 86.8082C42.94 87.5336 41.6648 87.8963 40.1794 87.8963ZM40.1794 84.796C41.1927 84.796 42.0016 84.2865 42.6061 83.2675C43.2106 82.2485 43.5099 80.72 43.5042 78.6819C43.5042 77.3405 43.366 76.2236 43.0897 75.3312C42.8191 74.4389 42.4333 73.7682 41.9325 73.3191C41.4374 72.8701 40.853 72.6455 40.1794 72.6455C39.1719 72.6455 38.3659 73.1493 37.7614 74.1568C37.1569 75.1643 36.8518 76.6727 36.846 78.6819C36.846 80.0406 36.9813 81.1748 37.2519 82.0844C37.5282 82.9883 37.9168 83.6676 38.4177 84.1224C38.9186 84.5715 39.5058 84.796 40.1794 84.796ZM51.4599 87.7322C50.8899 87.7322 50.4005 87.5307 49.9918 87.1277C49.5888 86.7189 49.3873 86.2296 49.3873 85.6596C49.3873 85.0954 49.5888 84.6118 49.9918 84.2088C50.4005 83.8058 50.8899 83.6043 51.4599 83.6043C52.0126 83.6043 52.4962 83.8058 52.9107 84.2088C53.3252 84.6118 53.5325 85.0954 53.5325 85.6596C53.5325 86.0396 53.4346 86.3879 53.2388 86.7045C53.0488 87.0154 52.7984 87.2659 52.4875 87.4558C52.1766 87.6401 51.8341 87.7322 51.4599 87.7322ZM62.7403 87.8963C61.255 87.8905 59.9769 87.5249 58.906 86.7995C57.841 86.0741 57.0206 85.0234 56.4449 83.6475C55.8749 82.2715 55.5928 80.6163 55.5986 78.6819C55.5986 76.7533 55.8835 75.1096 56.4535 73.7509C57.0292 72.3922 57.8496 71.3588 58.9147 70.6507C59.9855 69.9368 61.2607 69.5798 62.7403 69.5798C64.2199 69.5798 65.4923 69.9368 66.5573 70.6507C67.6282 71.3646 68.4514 72.4008 69.0272 73.7595C69.6029 75.1125 69.8878 76.7533 69.8821 78.6819C69.8821 80.6221 69.5942 82.2801 69.0185 83.6561C68.4486 85.0321 67.631 86.0828 66.566 86.8082C65.5009 87.5336 64.2257 87.8963 62.7403 87.8963ZM62.7403 84.796C63.7536 84.796 64.5625 84.2865 65.167 83.2675C65.7715 82.2485 66.0708 80.72 66.0651 78.6819C66.0651 77.3405 65.9269 76.2236 65.6506 75.3312C65.38 74.4389 64.9943 73.7682 64.4934 73.3191C63.9983 72.8701 63.4139 72.6455 62.7403 72.6455C61.7328 72.6455 60.9268 73.1493 60.3223 74.1568C59.7178 75.1643 59.4127 76.6727 59.4069 78.6819C59.4069 80.0406 59.5422 81.1748 59.8128 82.0844C60.0891 82.9883 60.4778 83.6676 60.9786 84.1224C61.4795 84.5715 62.0667 84.796 62.7403 84.796ZM78.9475 69.5798C79.8571 69.5798 80.7322 69.7324 81.5727 70.0375C82.419 70.3427 83.1732 70.8291 83.8353 71.497C84.5031 72.1648 85.0299 73.0514 85.4157 74.1568C85.8071 75.2564 86.0058 76.6065 86.0115 78.207C86.0115 79.7096 85.8417 81.051 85.502 82.2312C85.1681 83.4057 84.6874 84.4045 84.0598 85.2278C83.4323 86.0511 82.6752 86.6786 81.7886 87.1104C80.902 87.5364 79.9118 87.7495 78.8179 87.7495C77.6377 87.7495 76.5957 87.5221 75.6918 87.0672C74.7879 86.6067 74.0596 85.982 73.5069 85.1933C72.96 84.3988 72.629 83.5064 72.5138 82.5162H76.2013C76.3452 83.161 76.6475 83.6619 77.1081 84.0188C77.5686 84.37 78.1386 84.5456 78.8179 84.5456C79.9694 84.5456 80.8445 84.0447 81.4432 83.043C82.042 82.0355 82.3442 80.6566 82.35 78.9064H82.2291C81.9642 79.4246 81.6073 79.8708 81.1582 80.245C80.7092 80.6134 80.1939 80.8984 79.6124 81.0999C79.0367 81.3014 78.4236 81.4022 77.773 81.4022C76.731 81.4022 75.8012 81.1575 74.9837 80.6681C74.1661 80.1788 73.5213 79.5052 73.0493 78.6474C72.5772 77.7896 72.3411 76.8108 72.3411 75.7112C72.3354 74.5252 72.6088 73.4688 73.1615 72.5419C73.7142 71.615 74.4857 70.8896 75.4759 70.3657C76.4719 69.836 77.6291 69.5741 78.9475 69.5798ZM78.9734 72.516C78.3919 72.516 77.8738 72.6542 77.4189 72.9305C76.9699 73.2069 76.6129 73.5782 76.3481 74.0445C76.089 74.5108 75.9624 75.0319 75.9681 75.6076C75.9681 76.1891 76.0948 76.713 76.3481 77.1793C76.6072 77.6399 76.9584 78.0083 77.4017 78.2847C77.8507 78.5553 78.3631 78.6906 78.9388 78.6906C79.3706 78.6906 79.7708 78.61 80.1392 78.4488C80.5077 78.2876 80.8272 78.0659 81.0978 77.7838C81.3741 77.4959 81.59 77.1649 81.7455 76.7907C81.9009 76.4165 81.9786 76.0192 81.9786 75.599C81.9729 75.0405 81.8405 74.5281 81.5814 74.0618C81.3223 73.5955 80.9654 73.2212 80.5105 72.9391C80.0557 72.657 79.5433 72.516 78.9734 72.516Z" fill="#231F20"/>
<path d="M16.0378 108.887L19.096 101.932H19.8458L22.9041 108.887H22.0261L21.1678 106.904L21.5821 107.15H17.3498L17.7642 106.904L16.9158 108.887H16.0378ZM19.4512 102.908L17.8826 106.618L17.6458 106.43H21.296L21.0592 106.618L19.4808 102.908H19.4512ZM25.1108 108.887L23.0588 104.043H23.9664L25.604 108.147H25.4561L27.1233 104.043H27.9915L25.9296 108.887H25.1108ZM31.1525 108.976C30.6263 108.976 30.1725 108.877 29.7911 108.68C29.4096 108.476 29.1136 108.186 28.9032 107.811C28.6993 107.437 28.5973 106.989 28.5973 106.47C28.5973 105.976 28.696 105.542 28.8933 105.168C29.0906 104.793 29.3668 104.497 29.722 104.28C30.0772 104.063 30.4915 103.954 30.965 103.954C31.4254 103.954 31.8135 104.056 32.1292 104.26C32.4514 104.457 32.6981 104.737 32.8691 105.098C33.0401 105.454 33.1256 105.881 33.1256 106.381V106.677H29.2287V106.105H32.583L32.4054 106.263C32.4054 105.736 32.2837 105.329 32.0404 105.039C31.797 104.743 31.4419 104.595 30.9749 104.595C30.6526 104.595 30.3731 104.671 30.1363 104.822C29.9062 104.967 29.7253 105.174 29.5937 105.444C29.4688 105.707 29.4063 106.019 29.4063 106.381V106.46C29.4063 106.861 29.4754 107.197 29.6135 107.466C29.7516 107.736 29.9522 107.94 30.2153 108.078C30.4783 108.216 30.794 108.285 31.1623 108.285C31.4386 108.285 31.7115 108.246 31.9812 108.167C32.2508 108.088 32.5073 107.95 32.7507 107.752L33.0368 108.344C32.8066 108.548 32.5205 108.706 32.1785 108.818C31.8365 108.923 31.4945 108.976 31.1525 108.976ZM34.433 108.887V104.043H35.2222V105.177H35.1729C35.2913 104.803 35.4918 104.513 35.7747 104.309C36.064 104.105 36.4291 103.99 36.8697 103.964L37.2446 103.934L37.3137 104.684L36.702 104.743C36.2482 104.783 35.8963 104.931 35.6464 105.187C35.4031 105.437 35.2814 105.766 35.2814 106.174V108.887H34.433ZM39.7974 108.976C39.462 108.976 39.1595 108.913 38.8898 108.788C38.6202 108.657 38.4064 108.479 38.2486 108.255C38.0973 108.032 38.0217 107.782 38.0217 107.506C38.0217 107.144 38.1203 106.858 38.3176 106.647C38.5149 106.437 38.8273 106.289 39.2548 106.203C39.6823 106.111 40.2479 106.065 40.9517 106.065H41.5337V106.628H40.9813C40.5867 106.628 40.2545 106.641 39.9849 106.667C39.7152 106.693 39.4982 106.739 39.3338 106.805C39.1693 106.864 39.0509 106.947 38.9786 107.052C38.9063 107.157 38.8701 107.292 38.8701 107.456C38.8701 107.726 38.9687 107.94 39.166 108.098C39.3634 108.255 39.6231 108.334 39.9454 108.334C40.2216 108.334 40.4683 108.272 40.6853 108.147C40.9024 108.015 41.0734 107.841 41.1983 107.624C41.3299 107.4 41.3956 107.157 41.3956 106.894V105.769C41.3956 105.375 41.297 105.089 41.0997 104.911C40.9089 104.727 40.613 104.635 40.2118 104.635C39.9224 104.635 39.6396 104.678 39.3634 104.763C39.0871 104.842 38.801 104.974 38.5051 105.158L38.2288 104.536C38.413 104.418 38.6169 104.316 38.8405 104.23C39.0641 104.145 39.2976 104.079 39.5409 104.033C39.7909 103.98 40.0309 103.954 40.2611 103.954C40.682 103.954 41.0372 104.023 41.3266 104.161C41.616 104.293 41.8363 104.497 41.9875 104.773C42.1388 105.049 42.2145 105.404 42.2145 105.838V108.887H41.445V107.792H41.4844C41.4121 108.022 41.297 108.226 41.1391 108.403C40.9879 108.581 40.7971 108.722 40.5669 108.828C40.3433 108.926 40.0868 108.976 39.7974 108.976ZM45.9474 110.751C45.5462 110.751 45.1581 110.695 44.7832 110.584C44.4084 110.472 44.0828 110.311 43.8066 110.1L44.0828 109.469C44.2735 109.6 44.4675 109.709 44.6649 109.794C44.8622 109.88 45.066 109.942 45.2765 109.982C45.487 110.028 45.7007 110.051 45.9178 110.051C46.411 110.051 46.7892 109.923 47.0523 109.666C47.3154 109.416 47.4469 109.054 47.4469 108.581V107.585H47.4765C47.3713 107.94 47.1608 108.226 46.8451 108.443C46.5294 108.653 46.1644 108.759 45.75 108.759C45.3028 108.759 44.9115 108.66 44.5761 108.463C44.2472 108.259 43.9907 107.976 43.8066 107.614C43.6224 107.252 43.5303 106.835 43.5303 106.361C43.5303 105.881 43.6224 105.46 43.8066 105.098C43.9907 104.737 44.2472 104.457 44.5761 104.26C44.9115 104.056 45.3028 103.954 45.75 103.954C46.171 103.954 46.536 104.063 46.8451 104.28C47.1608 104.497 47.3746 104.786 47.4864 105.148H47.437V104.043H48.246V108.492C48.246 108.972 48.1572 109.38 47.9796 109.715C47.8021 110.051 47.5423 110.307 47.2003 110.485C46.8583 110.663 46.4406 110.751 45.9474 110.751ZM45.898 108.078C46.365 108.078 46.7366 107.923 47.0128 107.614C47.2891 107.298 47.4272 106.878 47.4272 106.351C47.4272 105.832 47.2891 105.417 47.0128 105.108C46.7366 104.799 46.365 104.645 45.898 104.645C45.4311 104.645 45.0595 104.799 44.7832 105.108C44.5136 105.417 44.3788 105.832 44.3788 106.351C44.3788 106.878 44.5136 107.298 44.7832 107.614C45.0595 107.923 45.4311 108.078 45.898 108.078ZM52.1454 108.976C51.6192 108.976 51.1654 108.877 50.7839 108.68C50.4025 108.476 50.1065 108.186 49.8961 107.811C49.6922 107.437 49.5902 106.989 49.5902 106.47C49.5902 105.976 49.6889 105.542 49.8862 105.168C50.0835 104.793 50.3597 104.497 50.7149 104.28C51.07 104.063 51.4844 103.954 51.9579 103.954C52.4183 103.954 52.8064 104.056 53.1221 104.26C53.4443 104.457 53.691 104.737 53.862 105.098C54.033 105.454 54.1185 105.881 54.1185 106.381V106.677H50.2216V106.105H53.5759L53.3983 106.263C53.3983 105.736 53.2766 105.329 53.0333 105.039C52.7899 104.743 52.4348 104.595 51.9678 104.595C51.6455 104.595 51.366 104.671 51.1292 104.822C50.899 104.967 50.7182 105.174 50.5866 105.444C50.4617 105.707 50.3992 106.019 50.3992 106.381V106.46C50.3992 106.861 50.4683 107.197 50.6064 107.466C50.7445 107.736 50.9451 107.94 51.2082 108.078C51.4712 108.216 51.7869 108.285 52.1552 108.285C52.4315 108.285 52.7044 108.246 52.9741 108.167C53.2437 108.088 53.5002 107.95 53.7436 107.752L54.0297 108.344C53.7995 108.548 53.5134 108.706 53.1714 108.818C52.8294 108.923 52.4874 108.976 52.1454 108.976ZM58.2035 108.887V101.932H61.0151C61.515 101.932 61.9392 102.014 62.2878 102.178C62.6364 102.343 62.8994 102.583 63.077 102.898C63.2612 103.208 63.3533 103.582 63.3533 104.023C63.3533 104.464 63.2612 104.842 63.077 105.158C62.8929 105.473 62.6265 105.713 62.2779 105.878C61.9359 106.042 61.515 106.124 61.0151 106.124H59.0519V108.887H58.2035ZM59.0519 105.414H60.8968C61.4295 105.414 61.8307 105.299 62.1003 105.069C62.37 104.832 62.5048 104.484 62.5048 104.023C62.5048 103.563 62.37 103.221 62.1003 102.997C61.8307 102.767 61.4295 102.652 60.8968 102.652H59.0519V105.414ZM64.5109 108.887V104.043H65.3001V105.177H65.2508C65.3692 104.803 65.5698 104.513 65.8526 104.309C66.142 104.105 66.507 103.99 66.9476 103.964L67.3225 103.934L67.3916 104.684L66.7799 104.743C66.3261 104.783 65.9743 104.931 65.7243 105.187C65.481 105.437 65.3593 105.766 65.3593 106.174V108.887H64.5109ZM70.5563 108.976C70.0302 108.976 69.5763 108.877 69.1949 108.68C68.8134 108.476 68.5175 108.186 68.307 107.811C68.1031 107.437 68.0012 106.989 68.0012 106.47C68.0012 105.976 68.0998 105.542 68.2971 105.168C68.4944 104.793 68.7707 104.497 69.1258 104.28C69.481 104.063 69.8953 103.954 70.3689 103.954C70.8292 103.954 71.2173 104.056 71.533 104.26C71.8553 104.457 72.1019 104.737 72.2729 105.098C72.4439 105.454 72.5294 105.881 72.5294 106.381V106.677H68.6326V106.105H71.9868L71.8092 106.263C71.8092 105.736 71.6875 105.329 71.4442 105.039C71.2008 104.743 70.8457 104.595 70.3787 104.595C70.0565 104.595 69.7769 104.671 69.5402 104.822C69.31 104.967 69.1291 105.174 68.9976 105.444C68.8726 105.707 68.8101 106.019 68.8101 106.381V106.46C68.8101 106.861 68.8792 107.197 69.0173 107.466C69.1554 107.736 69.356 107.94 69.6191 108.078C69.8822 108.216 70.1979 108.285 70.5662 108.285C70.8424 108.285 71.1153 108.246 71.385 108.167C71.6547 108.088 71.9112 107.95 72.1545 107.752L72.4406 108.344C72.2104 108.548 71.9243 108.706 71.5823 108.818C71.2403 108.923 70.8983 108.976 70.5563 108.976ZM75.5435 108.976C75.287 108.976 75.0338 108.949 74.7839 108.897C74.5339 108.851 74.3037 108.785 74.0933 108.699C73.8894 108.607 73.7118 108.499 73.5606 108.374L73.8269 107.772C73.9913 107.897 74.1689 108.002 74.3597 108.088C74.5504 108.167 74.7477 108.226 74.9516 108.265C75.1555 108.298 75.3561 108.315 75.5534 108.315C75.9414 108.315 76.2407 108.249 76.4511 108.117C76.6616 107.986 76.7668 107.808 76.7668 107.585C76.7668 107.394 76.701 107.246 76.5695 107.141C76.4445 107.035 76.2407 106.953 75.9578 106.894L74.991 106.716C74.557 106.631 74.2314 106.48 74.0144 106.263C73.8039 106.039 73.6987 105.753 73.6987 105.404C73.6987 105.115 73.7776 104.862 73.9354 104.645C74.0933 104.428 74.3169 104.26 74.6063 104.142C74.9022 104.017 75.2475 103.954 75.6422 103.954C75.8723 103.954 76.0993 103.977 76.3229 104.023C76.5465 104.069 76.7569 104.138 76.9543 104.23C77.1516 104.316 77.3127 104.428 77.4377 104.566L77.1614 105.158C77.0299 105.033 76.8786 104.931 76.7076 104.852C76.5432 104.773 76.3689 104.714 76.1848 104.674C76.0006 104.635 75.8197 104.615 75.6422 104.615C75.2738 104.615 74.9877 104.684 74.7839 104.822C74.58 104.96 74.478 105.145 74.478 105.375C74.478 105.565 74.5372 105.717 74.6556 105.829C74.774 105.934 74.9647 106.013 75.2278 106.065L76.1749 106.253C76.6353 106.345 76.9773 106.496 77.2009 106.707C77.4311 106.91 77.5462 107.19 77.5462 107.545C77.5462 107.841 77.464 108.098 77.2995 108.315C77.1351 108.525 76.9016 108.689 76.5991 108.808C76.3031 108.92 75.9513 108.976 75.5435 108.976ZM80.5918 108.976C80.3353 108.976 80.0821 108.949 79.8322 108.897C79.5823 108.851 79.3521 108.785 79.1416 108.699C78.9377 108.607 78.7601 108.499 78.6089 108.374L78.8752 107.772C79.0397 107.897 79.2172 108.002 79.408 108.088C79.5987 108.167 79.796 108.226 79.9999 108.265C80.2038 108.298 80.4044 108.315 80.6017 108.315C80.9897 108.315 81.289 108.249 81.4994 108.117C81.7099 107.986 81.8151 107.808 81.8151 107.585C81.8151 107.394 81.7494 107.246 81.6178 107.141C81.4929 107.035 81.289 106.953 81.0062 106.894L80.0394 106.716C79.6053 106.631 79.2797 106.48 79.0627 106.263C78.8522 106.039 78.747 105.753 78.747 105.404C78.747 105.115 78.8259 104.862 78.9838 104.645C79.1416 104.428 79.3652 104.26 79.6546 104.142C79.9506 104.017 80.2959 103.954 80.6905 103.954C80.9207 103.954 81.1476 103.977 81.3712 104.023C81.5948 104.069 81.8053 104.138 82.0026 104.23C82.1999 104.316 82.361 104.428 82.486 104.566L82.2097 105.158C82.0782 105.033 81.9269 104.931 81.7559 104.852C81.5915 104.773 81.4172 104.714 81.2331 104.674C81.0489 104.635 80.868 104.615 80.6905 104.615C80.3222 104.615 80.0361 104.684 79.8322 104.822C79.6283 104.96 79.5264 105.145 79.5264 105.375C79.5264 105.565 79.5855 105.717 79.7039 105.829C79.8223 105.934 80.013 106.013 80.2761 106.065L81.2232 106.253C81.6836 106.345 82.0256 106.496 82.2492 106.707C82.4794 106.91 82.5945 107.19 82.5945 107.545C82.5945 107.841 82.5123 108.098 82.3479 108.315C82.1834 108.525 81.95 108.689 81.6474 108.808C81.3515 108.92 80.9996 108.976 80.5918 108.976ZM85.6993 108.976C85.3047 108.976 84.9726 108.903 84.7029 108.759C84.4398 108.614 84.2425 108.4 84.111 108.117C83.9795 107.828 83.9137 107.473 83.9137 107.052V104.043H84.7522V107.022C84.7522 107.285 84.7884 107.512 84.8608 107.703C84.9397 107.887 85.0614 108.028 85.2258 108.127C85.3902 108.219 85.604 108.265 85.867 108.265C86.1433 108.265 86.3866 108.203 86.5971 108.078C86.8141 107.946 86.9851 107.769 87.1101 107.545C87.235 107.321 87.2975 107.068 87.2975 106.785V104.043H88.1361V108.887H87.337V107.802H87.3962C87.2515 108.176 87.0312 108.466 86.7352 108.67C86.4458 108.874 86.1005 108.976 85.6993 108.976ZM89.7717 108.887V104.043H90.561V105.177H90.5116C90.63 104.803 90.8306 104.513 91.1134 104.309C91.4028 104.105 91.7678 103.99 92.2085 103.964L92.5834 103.934L92.6524 104.684L92.0408 104.743C91.587 104.783 91.2351 104.931 90.9852 105.187C90.7418 105.437 90.6202 105.766 90.6202 106.174V108.887H89.7717ZM95.8171 108.976C95.291 108.976 94.8372 108.877 94.4557 108.68C94.0743 108.476 93.7783 108.186 93.5678 107.811C93.3639 107.437 93.262 106.989 93.262 106.47C93.262 105.976 93.3607 105.542 93.558 105.168C93.7553 104.793 94.0315 104.497 94.3867 104.28C94.7418 104.063 95.1562 103.954 95.6297 103.954C96.0901 103.954 96.4781 104.056 96.7938 104.26C97.1161 104.457 97.3627 104.737 97.5337 105.098C97.7047 105.454 97.7902 105.881 97.7902 106.381V106.677H93.8934V106.105H97.2476L97.07 106.263C97.07 105.736 96.9484 105.329 96.705 105.039C96.4617 104.743 96.1065 104.595 95.6396 104.595C95.3173 104.595 95.0378 104.671 94.801 104.822C94.5708 104.967 94.3899 105.174 94.2584 105.444C94.1334 105.707 94.071 106.019 94.071 106.381V106.46C94.071 106.861 94.14 107.197 94.2781 107.466C94.4163 107.736 94.6169 107.94 94.8799 108.078C95.143 108.216 95.4587 108.285 95.827 108.285C96.1032 108.285 96.3762 108.246 96.6458 108.167C96.9155 108.088 97.172 107.95 97.4153 107.752L97.7014 108.344C97.4712 108.548 97.1851 108.706 96.8431 108.818C96.5011 108.923 96.1591 108.976 95.8171 108.976Z" fill="#231F20"/>
</svg>
