<svg width="402" height="245" viewBox="0 0 402 245" fill="none" xmlns="http://www.w3.org/2000/svg">
<path d="M0 12.1521C0 5.4407 5.44068 0 12.1521 0H389.288C396 0 401.44 5.44068 401.44 12.1521V232.476C401.44 239.187 396 244.628 389.288 244.628H12.1521C5.44067 244.628 0 239.187 0 232.476V12.1521Z" fill="white"/>
<path d="M28.2264 39.2031H20.3857V43.1234H28.2264V39.2031Z" fill="#FF9090"/>
<path d="M102.713 39.9863H94.0879V43.9066H102.713V39.9863Z" fill="#ED1C24"/>
<path d="M47.5142 75.9043C47.5142 75.9043 68.3467 93.7574 99.7484 113.053C114.865 122.344 137.454 129.432 151.818 139.821C179.488 159.823 186.05 186.081 203.896 184.591C226.994 182.702 240.621 67.8363 255.479 64.2296C288.743 58.1975 332.962 168.527 377.134 131.33" stroke="#FF9191" stroke-width="0.784063" stroke-miterlimit="10" stroke-linecap="round"/>
<path d="M47.5142 152.477C47.5142 152.477 101.912 172.996 140.41 147.286C178.907 121.577 180.875 70.7148 207.055 70.7148C221.513 70.7148 247.325 97.7886 265.452 129.653C278.781 153.128 290.542 183.62 304.389 187.085C345.756 197.427 377.918 172.886 377.918 172.886" stroke="#ED1C24" stroke-width="2.35219" stroke-miterlimit="10" stroke-linecap="round"/>
<path d="M35.5293 45.2822V37.0285H36.501V40.6812H41.4415V37.0285H42.4132V45.2822H41.4415V41.5124H36.501V45.2822H35.5293ZM46.3665 45.3876C45.906 45.3876 45.5236 45.3017 45.2192 45.13C44.9148 44.9583 44.6845 44.7086 44.5284 44.3808C44.3801 44.0451 44.306 43.6276 44.306 43.1281V39.5807H45.266V43.1046C45.266 43.4403 45.3089 43.7212 45.3948 43.9476C45.4884 44.1661 45.6289 44.33 45.8162 44.4393C46.0114 44.5486 46.2572 44.6032 46.5538 44.6032C46.8816 44.6032 47.1665 44.5291 47.4084 44.3808C47.6582 44.2247 47.8533 44.0139 47.9938 43.7486C48.1343 43.4832 48.2046 43.171 48.2046 42.812V39.5807H49.1646V45.2822H48.228V43.971H48.3685C48.2124 44.4315 47.9548 44.7827 47.5958 45.0247C47.2445 45.2666 46.8348 45.3876 46.3665 45.3876ZM50.9842 45.2822V39.5807H51.9091V40.8568H51.792C51.8857 40.5602 52.0223 40.3105 52.2018 40.1076C52.3891 39.9046 52.6077 39.7485 52.8574 39.6393C53.115 39.53 53.3999 39.4754 53.7121 39.4754C54.196 39.4754 54.5862 39.5924 54.8828 39.8266C55.1872 40.0607 55.3901 40.4158 55.4916 40.8919H55.3277C55.4682 40.4627 55.7179 40.1193 56.077 39.8617C56.436 39.6041 56.8614 39.4754 57.3531 39.4754C57.7823 39.4754 58.1375 39.5612 58.4184 39.7329C58.6994 39.8968 58.9102 40.1466 59.0506 40.4822C59.1911 40.81 59.2614 41.2276 59.2614 41.7349V45.2822H58.3014V41.7817C58.3014 41.2588 58.2116 40.8763 58.0321 40.6344C57.8526 40.3924 57.5482 40.2715 57.1189 40.2715C56.8067 40.2715 56.5335 40.3456 56.2994 40.4939C56.0731 40.6344 55.8974 40.8412 55.7726 41.1144C55.6555 41.3798 55.597 41.6959 55.597 42.0627V45.2822H54.6369V41.7817C54.6369 41.2588 54.5433 40.8763 54.356 40.6344C54.1765 40.3924 53.876 40.2715 53.4545 40.2715C53.1423 40.2715 52.873 40.3456 52.6467 40.4939C52.4203 40.6344 52.2447 40.8412 52.1199 41.1144C51.995 41.3798 51.9325 41.6959 51.9325 42.0627V45.2822H50.9842ZM60.9391 38.1641V37.0987H62.1098V38.1641H60.9391ZM61.0562 45.2822V39.5807H62.0045V45.2822H61.0562ZM65.9891 45.3876C65.4818 45.3876 65.0369 45.2666 64.6545 45.0247C64.2798 44.7827 63.9871 44.4393 63.7764 43.9944C63.5657 43.5495 63.4603 43.0266 63.4603 42.4256C63.4603 41.8168 63.5618 41.2939 63.7647 40.8568C63.9754 40.4198 64.2681 40.0802 64.6428 39.8383C65.0252 39.5963 65.474 39.4754 65.9891 39.4754C66.4964 39.4754 66.9335 39.6041 67.3003 39.8617C67.675 40.1193 67.9247 40.4666 68.0496 40.9037H67.9325V37.0285H68.8808V45.2822H67.956V43.9359H68.0613C67.9364 44.3808 67.6867 44.7359 67.312 45.0012C66.9452 45.2588 66.5042 45.3876 65.9891 45.3876ZM66.1881 44.6149C66.7267 44.6149 67.152 44.4276 67.4642 44.0529C67.7842 43.6705 67.9442 43.1281 67.9442 42.4256C67.9442 41.7232 67.7842 41.1846 67.4642 40.81C67.152 40.4354 66.7267 40.248 66.1881 40.248C65.6496 40.248 65.2203 40.4354 64.9003 40.81C64.5803 41.1846 64.4203 41.7232 64.4203 42.4256C64.4203 43.1281 64.5803 43.6705 64.9003 44.0529C65.2203 44.4276 65.6496 44.6149 66.1881 44.6149ZM70.5657 38.1641V37.0987H71.7364V38.1641H70.5657ZM70.6828 45.2822V39.5807H71.6311V45.2822H70.6828ZM75.7328 45.3876C75.0537 45.3876 74.5464 45.2081 74.2108 44.8491C73.883 44.49 73.7191 43.9749 73.7191 43.3037V40.33H72.5952V39.5807H73.7191V37.848H74.6674V39.5807H76.4938V40.33H74.6674V43.21C74.6674 43.6549 74.7611 43.9944 74.9484 44.2286C75.1357 44.4549 75.4401 44.5681 75.8616 44.5681C75.9864 44.5681 76.1113 44.5525 76.2362 44.5212C76.3689 44.49 76.486 44.4588 76.5874 44.4276L76.763 45.1534C76.6538 45.2159 76.4977 45.2705 76.2947 45.3173C76.0996 45.3642 75.9123 45.3876 75.7328 45.3876ZM78.324 47.3896L79.3893 44.9895V45.4227L76.8957 39.5807H77.9259L79.9513 44.5564H79.6586L81.7074 39.5807H82.7025L79.3308 47.3896H78.324Z" fill="#231F20"/>
<path d="M112.04 46.0674V38.6566H109.043V37.8137H116.009V38.6566H113.012V46.0674H112.04ZM118.67 46.1727C118.062 46.1727 117.539 46.0557 117.102 45.8215C116.664 45.5796 116.325 45.2401 116.083 44.803C115.849 44.3581 115.732 43.8352 115.732 43.2342C115.732 42.641 115.849 42.122 116.083 41.6771C116.317 41.2322 116.641 40.8849 117.055 40.6351C117.468 40.3854 117.945 40.2605 118.483 40.2605C118.998 40.2605 119.439 40.3737 119.806 40.6C120.181 40.8264 120.465 41.1503 120.661 41.5717C120.856 41.9854 120.953 42.4849 120.953 43.0703V43.4332H116.458V42.801H120.333L120.134 42.9532C120.134 42.3288 119.993 41.8449 119.712 41.5015C119.439 41.1503 119.033 40.9747 118.495 40.9747C118.105 40.9747 117.769 41.0683 117.488 41.2556C117.215 41.4352 117.008 41.6888 116.867 42.0166C116.727 42.3366 116.657 42.7113 116.657 43.1405V43.2108C116.657 43.6869 116.731 44.0888 116.879 44.4166C117.035 44.7366 117.265 44.9825 117.57 45.1542C117.874 45.3181 118.241 45.4001 118.67 45.4001C119.006 45.4001 119.33 45.3493 119.642 45.2479C119.954 45.1386 120.255 44.9669 120.544 44.7327L120.86 45.4118C120.602 45.6459 120.274 45.8332 119.876 45.9737C119.478 46.1064 119.076 46.1727 118.67 46.1727ZM122.383 46.0674V40.3659H123.308V41.642H123.191C123.285 41.3454 123.421 41.0956 123.601 40.8927C123.788 40.6898 124.007 40.5337 124.256 40.4244C124.514 40.3151 124.799 40.2605 125.111 40.2605C125.595 40.2605 125.985 40.3776 126.282 40.6117C126.586 40.8459 126.789 41.201 126.891 41.6771H126.727C126.867 41.2478 127.117 40.9044 127.476 40.6469C127.835 40.3893 128.26 40.2605 128.752 40.2605C129.181 40.2605 129.536 40.3464 129.817 40.5181C130.098 40.682 130.309 40.9317 130.45 41.2673C130.59 41.5952 130.66 42.0127 130.66 42.52V46.0674H129.7V42.5669C129.7 42.0439 129.611 41.6615 129.431 41.4195C129.252 41.1776 128.947 41.0566 128.518 41.0566C128.206 41.0566 127.932 41.1308 127.698 41.2791C127.472 41.4195 127.296 41.6264 127.171 41.8995C127.054 42.1649 126.996 42.481 126.996 42.8478V46.0674H126.036V42.5669C126.036 42.0439 125.942 41.6615 125.755 41.4195C125.575 41.1776 125.275 41.0566 124.853 41.0566C124.541 41.0566 124.272 41.1308 124.046 41.2791C123.819 41.4195 123.644 41.6264 123.519 41.8995C123.394 42.1649 123.331 42.481 123.331 42.8478V46.0674H122.383ZM132.455 48.1747V40.3659H133.38V41.7122H133.275C133.399 41.2673 133.645 40.9161 134.012 40.6586C134.387 40.3932 134.832 40.2605 135.347 40.2605C135.862 40.2605 136.307 40.3815 136.681 40.6234C137.056 40.8654 137.349 41.2049 137.56 41.642C137.77 42.0791 137.876 42.602 137.876 43.2108C137.876 43.8118 137.77 44.3347 137.56 44.7796C137.357 45.2244 137.064 45.5679 136.681 45.8098C136.307 46.0518 135.862 46.1727 135.347 46.1727C134.84 46.1727 134.399 46.044 134.024 45.7864C133.657 45.521 133.411 45.1737 133.286 44.7444H133.403V48.1747H132.455ZM135.148 45.4001C135.686 45.4001 136.116 45.2127 136.436 44.8381C136.756 44.4557 136.916 43.9132 136.916 43.2108C136.916 42.5083 136.756 41.9698 136.436 41.5952C136.116 41.2205 135.686 41.0332 135.148 41.0332C134.617 41.0332 134.192 41.2205 133.872 41.5952C133.552 41.9698 133.392 42.5083 133.392 43.2108C133.392 43.9132 133.552 44.4557 133.872 44.8381C134.192 45.2127 134.617 45.4001 135.148 45.4001ZM141.914 46.1727C141.305 46.1727 140.782 46.0557 140.345 45.8215C139.908 45.5796 139.568 45.2401 139.326 44.803C139.092 44.3581 138.975 43.8352 138.975 43.2342C138.975 42.641 139.092 42.122 139.326 41.6771C139.56 41.2322 139.884 40.8849 140.298 40.6351C140.712 40.3854 141.188 40.2605 141.726 40.2605C142.241 40.2605 142.682 40.3737 143.049 40.6C143.424 40.8264 143.709 41.1503 143.904 41.5717C144.099 41.9854 144.197 42.4849 144.197 43.0703V43.4332H139.701V42.801H143.576L143.377 42.9532C143.377 42.3288 143.237 41.8449 142.956 41.5015C142.682 41.1503 142.277 40.9747 141.738 40.9747C141.348 40.9747 141.012 41.0683 140.731 41.2556C140.458 41.4352 140.251 41.6888 140.111 42.0166C139.97 42.3366 139.9 42.7113 139.9 43.1405V43.2108C139.9 43.6869 139.974 44.0888 140.122 44.4166C140.279 44.7366 140.509 44.9825 140.813 45.1542C141.118 45.3181 141.484 45.4001 141.914 45.4001C142.249 45.4001 142.573 45.3493 142.885 45.2479C143.198 45.1386 143.498 44.9669 143.787 44.7327L144.103 45.4118C143.845 45.6459 143.518 45.8332 143.12 45.9737C142.721 46.1064 142.32 46.1727 141.914 46.1727ZM145.603 46.0674V40.3659H146.528V41.7122H146.423C146.555 41.2517 146.786 40.9044 147.113 40.6703C147.441 40.4283 147.874 40.2878 148.413 40.2488L148.764 40.2254L148.846 41.0566L148.214 41.1152C147.691 41.1698 147.285 41.3454 146.996 41.642C146.707 41.9308 146.563 42.3249 146.563 42.8244V46.0674H145.603ZM151.579 46.1727C151.189 46.1727 150.837 46.0986 150.525 45.9503C150.221 45.7942 149.979 45.5835 149.799 45.3181C149.62 45.0527 149.53 44.7562 149.53 44.4283C149.53 44.0069 149.635 43.6752 149.846 43.4332C150.065 43.1913 150.424 43.0196 150.923 42.9181C151.423 42.8088 152.102 42.7542 152.96 42.7542H153.511V43.3864H152.972C152.496 43.3864 152.098 43.402 151.778 43.4332C151.458 43.4644 151.204 43.5191 151.017 43.5971C150.83 43.6752 150.693 43.7766 150.607 43.9015C150.529 44.0264 150.49 44.1825 150.49 44.3698C150.49 44.6898 150.603 44.9513 150.83 45.1542C151.056 45.3571 151.36 45.4586 151.743 45.4586C152.063 45.4586 152.34 45.3845 152.574 45.2362C152.816 45.0801 153.007 44.8732 153.148 44.6157C153.288 44.3581 153.358 44.0654 153.358 43.7376V42.3913C153.358 41.9152 153.257 41.5717 153.054 41.361C152.851 41.1425 152.523 41.0332 152.07 41.0332C151.735 41.0332 151.407 41.0839 151.087 41.1854C150.767 41.2791 150.435 41.4352 150.092 41.6537L149.764 40.9512C149.975 40.8108 150.209 40.6898 150.467 40.5883C150.724 40.4869 150.993 40.4088 151.274 40.3542C151.555 40.2917 151.829 40.2605 152.094 40.2605C152.586 40.2605 152.991 40.3425 153.311 40.5064C153.639 40.6625 153.881 40.9044 154.037 41.2322C154.201 41.5522 154.283 41.9698 154.283 42.4849V46.0674H153.382V44.7444H153.487C153.417 45.041 153.292 45.2947 153.112 45.5054C152.941 45.7162 152.722 45.8801 152.457 45.9971C152.199 46.1142 151.907 46.1727 151.579 46.1727ZM158.347 46.1727C157.668 46.1727 157.161 45.9932 156.826 45.6342C156.498 45.2752 156.334 44.7601 156.334 44.0888V41.1152H155.21V40.3659H156.334V38.6332H157.282V40.3659H159.108V41.1152H157.282V43.9952C157.282 44.4401 157.376 44.7796 157.563 45.0137C157.75 45.2401 158.055 45.3532 158.476 45.3532C158.601 45.3532 158.726 45.3376 158.851 45.3064C158.984 45.2752 159.101 45.244 159.202 45.2127L159.378 45.9386C159.268 46.001 159.112 46.0557 158.909 46.1025C158.714 46.1493 158.527 46.1727 158.347 46.1727ZM162.24 46.1727C161.779 46.1727 161.397 46.0869 161.093 45.9152C160.788 45.7435 160.558 45.4937 160.402 45.1659C160.253 44.8303 160.179 44.4127 160.179 43.9132V40.3659H161.139V43.8898C161.139 44.2254 161.182 44.5064 161.268 44.7327C161.362 44.9513 161.502 45.1152 161.69 45.2244C161.885 45.3337 162.131 45.3884 162.427 45.3884C162.755 45.3884 163.04 45.3142 163.282 45.1659C163.532 45.0098 163.727 44.7991 163.867 44.5337C164.008 44.2683 164.078 43.9561 164.078 43.5971V40.3659H165.038V46.0674H164.101V44.7562H164.242C164.086 45.2166 163.828 45.5679 163.469 45.8098C163.118 46.0518 162.708 46.1727 162.24 46.1727ZM166.834 46.0674V40.3659H167.759V41.7122H167.654C167.786 41.2517 168.017 40.9044 168.344 40.6703C168.672 40.4283 169.105 40.2878 169.644 40.2488L169.995 40.2254L170.077 41.0566L169.445 41.1152C168.922 41.1698 168.516 41.3454 168.227 41.642C167.939 41.9308 167.794 42.3249 167.794 42.8244V46.0674H166.834ZM173.595 46.1727C172.986 46.1727 172.463 46.0557 172.026 45.8215C171.589 45.5796 171.249 45.2401 171.007 44.803C170.773 44.3581 170.656 43.8352 170.656 43.2342C170.656 42.641 170.773 42.122 171.007 41.6771C171.241 41.2322 171.565 40.8849 171.979 40.6351C172.393 40.3854 172.869 40.2605 173.407 40.2605C173.922 40.2605 174.363 40.3737 174.73 40.6C175.105 40.8264 175.39 41.1503 175.585 41.5717C175.78 41.9854 175.878 42.4849 175.878 43.0703V43.4332H171.382V42.801H175.257L175.058 42.9532C175.058 42.3288 174.917 41.8449 174.637 41.5015C174.363 41.1503 173.957 40.9747 173.419 40.9747C173.029 40.9747 172.693 41.0683 172.412 41.2556C172.139 41.4352 171.932 41.6888 171.792 42.0166C171.651 42.3366 171.581 42.7113 171.581 43.1405V43.2108C171.581 43.6869 171.655 44.0888 171.803 44.4166C171.959 44.7366 172.19 44.9825 172.494 45.1542C172.798 45.3181 173.165 45.4001 173.595 45.4001C173.93 45.4001 174.254 45.3493 174.566 45.2479C174.878 45.1386 175.179 44.9669 175.468 44.7327L175.784 45.4118C175.526 45.6459 175.198 45.8332 174.8 45.9737C174.402 46.1064 174 46.1727 173.595 46.1727Z" fill="#231F20"/>
<path d="M22.7776 64.2314C22.2272 64.2314 21.7651 64.0921 21.3913 63.8135C21.0176 63.5281 20.7322 63.1136 20.5352 62.57C20.3449 62.0195 20.2498 61.3434 20.2498 60.5416C20.2498 59.7397 20.3449 59.067 20.5352 58.5234C20.7254 57.973 21.0074 57.5585 21.3812 57.2799C21.7617 57.0013 22.2272 56.862 22.7776 56.862C23.3348 56.862 23.8003 57.0013 24.174 57.2799C24.5477 57.5585 24.8297 57.9696 25.02 58.5132C25.2103 59.0568 25.3054 59.7296 25.3054 60.5314C25.3054 61.3332 25.2069 62.0093 25.0098 62.5598C24.8195 63.1102 24.5375 63.5281 24.1638 63.8135C23.7901 64.0921 23.328 64.2314 22.7776 64.2314ZM22.7776 63.4771C23.3416 63.4771 23.7595 63.2393 24.0313 62.7636C24.3099 62.2812 24.4492 61.5371 24.4492 60.5314C24.4492 59.5257 24.3133 58.7884 24.0415 58.3195C23.7697 57.8507 23.3484 57.6162 22.7776 57.6162C22.2136 57.6162 21.7923 57.8541 21.5137 58.3297C21.2419 58.7986 21.106 59.5359 21.106 60.5416C21.106 61.5405 21.2419 62.2812 21.5137 62.7636C21.7923 63.2393 22.2136 63.4771 22.7776 63.4771ZM26.5144 64.1396V63.0592H27.6152V64.1396H26.5144ZM31.3579 64.2314C30.5492 64.2314 29.9173 64.0581 29.462 63.7115C29.0067 63.3582 28.7791 62.8689 28.7791 62.2438C28.7791 61.9108 28.847 61.6186 28.9829 61.3672C29.1188 61.109 29.3023 60.9017 29.5333 60.7454C29.7712 60.5824 30.0464 60.477 30.359 60.4295V60.511C30.0804 60.4498 29.8357 60.3377 29.6251 60.1746C29.4144 60.0116 29.2479 59.8111 29.1256 59.5733C29.0101 59.3286 28.9524 59.0636 28.9524 58.7782C28.9524 58.1802 29.1698 57.7114 29.6047 57.3716C30.0396 57.0319 30.624 56.862 31.3579 56.862C32.0917 56.862 32.6761 57.0319 33.111 57.3716C33.5459 57.7114 33.7634 58.1802 33.7634 58.7782C33.7634 59.0636 33.7022 59.3286 33.5799 59.5733C33.4644 59.8111 33.3013 60.0116 33.0906 60.1746C32.8868 60.3377 32.6422 60.4498 32.3568 60.511V60.4295C32.6693 60.4702 32.9411 60.5722 33.1722 60.7352C33.41 60.8983 33.5969 61.109 33.7328 61.3672C33.8687 61.6186 33.9366 61.9074 33.9366 62.2336C33.9366 62.8655 33.709 63.3582 33.2537 63.7115C32.7984 64.0581 32.1665 64.2314 31.3579 64.2314ZM31.3579 63.5077C31.9287 63.5077 32.3602 63.3956 32.6523 63.1713C32.9513 62.9471 33.1008 62.6175 33.1008 62.1826C33.1008 61.7477 32.9513 61.4182 32.6523 61.1939C32.3602 60.9697 31.9287 60.8576 31.3579 60.8576C30.7871 60.8576 30.3522 60.9697 30.0532 61.1939C29.761 61.4182 29.6149 61.7477 29.6149 62.1826C29.6149 62.6175 29.761 62.9471 30.0532 63.1713C30.3522 63.3956 30.7871 63.5077 31.3579 63.5077ZM31.3579 60.1339C31.8539 60.1339 32.2412 60.0217 32.5198 59.7975C32.7984 59.5665 32.9377 59.2505 32.9377 58.8496C32.9377 58.4555 32.7984 58.1463 32.5198 57.922C32.2412 57.6978 31.8539 57.5857 31.3579 57.5857C30.8686 57.5857 30.4847 57.6978 30.2061 57.922C29.9275 58.1463 29.7882 58.4555 29.7882 58.8496C29.7882 59.2505 29.9275 59.5665 30.2061 59.7975C30.4847 60.0217 30.8686 60.1339 31.3579 60.1339Z" fill="#231F20"/>
<path d="M22.7776 124.182C22.2272 124.182 21.7651 124.042 21.3913 123.764C21.0176 123.478 20.7322 123.064 20.5352 122.52C20.3449 121.97 20.2498 121.294 20.2498 120.492C20.2498 119.69 20.3449 119.017 20.5352 118.474C20.7254 117.923 21.0074 117.509 21.3812 117.23C21.7617 116.951 22.2272 116.812 22.7776 116.812C23.3348 116.812 23.8003 116.951 24.174 117.23C24.5477 117.509 24.8297 117.92 25.02 118.463C25.2103 119.007 25.3054 119.68 25.3054 120.482C25.3054 121.283 25.2069 121.96 25.0098 122.51C24.8195 123.06 24.5375 123.478 24.1638 123.764C23.7901 124.042 23.328 124.182 22.7776 124.182ZM22.7776 123.427C23.3416 123.427 23.7595 123.189 24.0313 122.714C24.3099 122.231 24.4492 121.487 24.4492 120.482C24.4492 119.476 24.3133 118.739 24.0415 118.27C23.7697 117.801 23.3484 117.566 22.7776 117.566C22.2136 117.566 21.7923 117.804 21.5137 118.28C21.2419 118.749 21.106 119.486 21.106 120.492C21.106 121.491 21.2419 122.231 21.5137 122.714C21.7923 123.189 22.2136 123.427 22.7776 123.427ZM26.5144 124.09V123.009H27.6152V124.09H26.5144ZM31.6025 124.182C31.0317 124.182 30.5458 124.042 30.1449 123.764C29.7508 123.485 29.4484 123.084 29.2378 122.561C29.0339 122.038 28.932 121.406 28.932 120.665C28.932 119.836 29.0441 119.136 29.2683 118.565C29.4994 117.995 29.8323 117.56 30.2672 117.261C30.7089 116.962 31.2321 116.812 31.8369 116.812C32.0951 116.812 32.3466 116.846 32.5912 116.914C32.8426 116.982 33.077 117.081 33.2945 117.21C33.5187 117.339 33.7158 117.495 33.8857 117.679L33.5595 118.351C33.3081 118.079 33.0329 117.882 32.7339 117.76C32.4417 117.638 32.1393 117.577 31.8267 117.577C31.4938 117.577 31.1982 117.641 30.94 117.77C30.6885 117.893 30.4711 118.079 30.2876 118.331C30.1109 118.576 29.9784 118.881 29.8901 119.248C29.8018 119.615 29.7576 120.04 29.7576 120.522V121.317H29.7066C29.761 120.957 29.8799 120.648 30.0634 120.39C30.2468 120.125 30.4813 119.924 30.7667 119.788C31.0521 119.646 31.3647 119.574 31.7044 119.574C32.1393 119.574 32.5198 119.673 32.846 119.87C33.1722 120.06 33.427 120.325 33.6105 120.665C33.8007 121.005 33.8959 121.399 33.8959 121.847C33.8959 122.296 33.7973 122.697 33.6003 123.05C33.41 123.404 33.1416 123.682 32.795 123.886C32.4485 124.083 32.051 124.182 31.6025 124.182ZM31.5515 123.448C31.8505 123.448 32.1121 123.383 32.3364 123.254C32.5674 123.118 32.7475 122.931 32.8766 122.693C33.0057 122.456 33.0703 122.18 33.0703 121.868C33.0703 121.562 33.0057 121.294 32.8766 121.063C32.7475 120.825 32.5674 120.641 32.3364 120.512C32.1121 120.376 31.8505 120.308 31.5515 120.308C31.2457 120.308 30.9773 120.376 30.7463 120.512C30.522 120.641 30.3454 120.825 30.2163 121.063C30.0872 121.294 30.0226 121.562 30.0226 121.868C30.0226 122.18 30.0872 122.456 30.2163 122.693C30.3454 122.931 30.522 123.118 30.7463 123.254C30.9773 123.383 31.2457 123.448 31.5515 123.448Z" fill="#231F20"/>
<path d="M22.7776 184.554C22.2272 184.554 21.7651 184.414 21.3913 184.136C21.0176 183.85 20.7322 183.436 20.5352 182.892C20.3449 182.342 20.2498 181.666 20.2498 180.864C20.2498 180.062 20.3449 179.389 20.5352 178.846C20.7254 178.295 21.0074 177.881 21.3812 177.602C21.7617 177.324 22.2272 177.184 22.7776 177.184C23.3348 177.184 23.8003 177.324 24.174 177.602C24.5477 177.881 24.8297 178.292 25.02 178.835C25.2103 179.379 25.3054 180.052 25.3054 180.854C25.3054 181.655 25.2069 182.332 25.0098 182.882C24.8195 183.432 24.5375 183.85 24.1638 184.136C23.7901 184.414 23.328 184.554 22.7776 184.554ZM22.7776 183.799C23.3416 183.799 23.7595 183.562 24.0313 183.086C24.3099 182.603 24.4492 181.859 24.4492 180.854C24.4492 179.848 24.3133 179.111 24.0415 178.642C23.7697 178.173 23.3484 177.939 22.7776 177.939C22.2136 177.939 21.7923 178.176 21.5137 178.652C21.2419 179.121 21.106 179.858 21.106 180.864C21.106 181.863 21.2419 182.603 21.5137 183.086C21.7923 183.562 22.2136 183.799 22.7776 183.799ZM26.5144 184.462V183.381H27.6152V184.462H26.5144ZM32.1631 184.462V182.943H28.83V182.291L32.2242 177.276H33.0193V182.209H34.0488V182.943H33.0193V184.462H32.1631ZM32.1733 182.209V178.336H32.3364L29.5843 182.413L29.5435 182.209H32.1733Z" fill="#231F20"/>
<path d="M35.3701 224.441V217.808H36.2075L38.7008 222.654H38.5596L41.0436 217.808H41.8715V224.441H41.1V218.947H41.2035L38.9172 223.397H38.3432L36.0287 218.937H36.1322V224.441H35.3701ZM45.1048 224.526C44.7787 224.526 44.487 224.466 44.2298 224.347C43.9726 224.222 43.7688 224.053 43.6182 223.839C43.474 223.626 43.4018 223.388 43.4018 223.124C43.4018 222.773 43.4959 222.497 43.6841 222.296C43.8786 222.095 44.1796 221.954 44.5874 221.873C45.0013 221.785 45.5408 221.741 46.2057 221.741H46.789V222.287H46.2339C45.8638 222.287 45.5502 222.299 45.293 222.324C45.0358 222.35 44.8257 222.393 44.6626 222.456C44.5058 222.513 44.3898 222.591 44.3145 222.691C44.2455 222.792 44.211 222.92 44.211 223.077C44.211 223.334 44.3051 223.538 44.4933 223.689C44.6877 223.833 44.9386 223.905 45.246 223.905C45.5094 223.905 45.7446 223.842 45.9516 223.717C46.1649 223.591 46.3342 223.425 46.4597 223.218C46.5914 223.011 46.6573 222.782 46.6573 222.531V221.459C46.6573 221.082 46.5601 220.81 46.3656 220.64C46.1774 220.471 45.8889 220.386 45.5 220.386C45.224 220.386 44.9512 220.427 44.6814 220.509C44.418 220.584 44.1451 220.709 43.8629 220.885L43.59 220.283C43.7719 220.17 43.9695 220.073 44.1828 219.991C44.4023 219.91 44.6281 219.847 44.8602 219.803C45.0986 219.759 45.3306 219.737 45.5565 219.737C45.9579 219.737 46.2966 219.8 46.5726 219.925C46.8549 220.051 47.0681 220.245 47.2124 220.509C47.3629 220.772 47.4382 221.111 47.4382 221.525V224.441H46.7137V223.406H46.742C46.6667 223.62 46.5538 223.811 46.4032 223.98C46.2527 224.15 46.0677 224.285 45.8481 224.385C45.6286 224.479 45.3808 224.526 45.1048 224.526ZM49.0111 224.441V219.822H49.7732V220.894H49.7356C49.8485 220.543 50.0429 220.27 50.3189 220.076C50.5949 219.881 50.943 219.768 51.3633 219.737L51.7302 219.718L51.7961 220.443L51.1939 220.499C50.7611 220.537 50.4255 220.678 50.1872 220.923C49.9488 221.167 49.8296 221.478 49.8296 221.854V224.441H49.0111ZM55.4838 224.441V223.745H57.1962V218.476L57.629 218.514L55.8131 219.681L55.4556 219.06L57.4126 217.808H58.0053V223.745H59.586V224.441H55.4838ZM62.8942 224.526C62.612 224.526 62.3328 224.498 62.0568 224.441C61.7871 224.379 61.5331 224.291 61.2947 224.178C61.0564 224.059 60.84 223.911 60.6455 223.736L60.956 223.096C61.2508 223.347 61.5582 223.529 61.8781 223.642C62.2042 223.755 62.5398 223.811 62.8848 223.811C63.1796 223.811 63.4368 223.767 63.6563 223.679C63.8759 223.591 64.0452 223.46 64.1644 223.284C64.2899 223.102 64.3526 222.876 64.3526 222.607C64.3526 222.218 64.224 221.926 63.9668 221.732C63.7096 221.531 63.3364 221.431 62.8472 221.431H61.8593V220.725H62.7437C63.0322 220.725 63.2831 220.678 63.4964 220.584C63.7096 220.49 63.8759 220.352 63.995 220.17C64.1205 219.982 64.1832 219.756 64.1832 219.492C64.1832 219.141 64.0672 218.878 63.8351 218.702C63.603 218.526 63.2894 218.439 62.8942 218.439C62.5555 218.439 62.2293 218.498 61.9157 218.617C61.6084 218.737 61.323 218.928 61.0595 219.191L60.7584 218.561C61.0156 218.285 61.3355 218.078 61.7181 217.94C62.107 217.796 62.5116 217.724 62.9319 217.724C63.3521 217.724 63.7159 217.793 64.0233 217.931C64.3306 218.062 64.5658 218.257 64.7289 218.514C64.8983 218.765 64.983 219.069 64.983 219.427C64.983 219.815 64.8732 220.154 64.6537 220.443C64.4404 220.731 64.1456 220.932 63.7692 221.045V221.007C64.0452 221.057 64.2867 221.155 64.4937 221.299C64.707 221.443 64.8701 221.628 64.983 221.854C65.0959 222.08 65.1523 222.343 65.1523 222.644C65.1523 223.04 65.0582 223.378 64.8701 223.66C64.6882 223.936 64.4278 224.15 64.0891 224.3C63.7504 224.451 63.3521 224.526 62.8942 224.526Z" fill="#231F20"/>
<path d="M139.406 224.441V217.808H140.244L142.737 222.654H142.596L145.08 217.808H145.908V224.441H145.136V218.947H145.24L142.953 223.397H142.379L140.065 218.937H140.168V224.441H139.406ZM149.141 224.526C148.815 224.526 148.523 224.466 148.266 224.347C148.009 224.222 147.805 224.053 147.654 223.839C147.51 223.626 147.438 223.388 147.438 223.124C147.438 222.773 147.532 222.497 147.72 222.296C147.915 222.095 148.216 221.954 148.623 221.873C149.037 221.785 149.577 221.741 150.242 221.741H150.825V222.287H150.27C149.9 222.287 149.586 222.299 149.329 222.324C149.072 222.35 148.862 222.393 148.699 222.456C148.542 222.513 148.426 222.591 148.351 222.691C148.282 222.792 148.247 222.92 148.247 223.077C148.247 223.334 148.341 223.538 148.529 223.689C148.724 223.833 148.975 223.905 149.282 223.905C149.546 223.905 149.781 223.842 149.988 223.717C150.201 223.591 150.37 223.425 150.496 223.218C150.628 223.011 150.693 222.782 150.693 222.531V221.459C150.693 221.082 150.596 220.81 150.402 220.64C150.214 220.471 149.925 220.386 149.536 220.386C149.26 220.386 148.987 220.427 148.718 220.509C148.454 220.584 148.181 220.709 147.899 220.885L147.626 220.283C147.808 220.17 148.006 220.073 148.219 219.991C148.438 219.91 148.664 219.847 148.896 219.803C149.135 219.759 149.367 219.737 149.593 219.737C149.994 219.737 150.333 219.8 150.609 219.925C150.891 220.051 151.104 220.245 151.249 220.509C151.399 220.772 151.474 221.111 151.474 221.525V224.441H150.75V223.406H150.778C150.703 223.62 150.59 223.811 150.439 223.98C150.289 224.15 150.104 224.285 149.884 224.385C149.665 224.479 149.417 224.526 149.141 224.526ZM153.047 224.441V219.822H153.809V220.894H153.772C153.885 220.543 154.079 220.27 154.355 220.076C154.631 219.881 154.979 219.768 155.399 219.737L155.766 219.718L155.832 220.443L155.23 220.499C154.797 220.537 154.462 220.678 154.223 220.923C153.985 221.167 153.866 221.478 153.866 221.854V224.441H153.047ZM159.52 224.441V223.745H161.232V218.476L161.665 218.514L159.849 219.681L159.492 219.06L161.449 217.808H162.041V223.745H163.622V224.441H159.52ZM167.119 224.526C166.83 224.526 166.551 224.495 166.281 224.432C166.011 224.369 165.761 224.278 165.528 224.159C165.296 224.034 165.089 223.886 164.907 223.717L165.227 223.077C165.516 223.334 165.814 223.522 166.121 223.642C166.429 223.755 166.758 223.811 167.109 223.811C167.573 223.811 167.934 223.689 168.191 223.444C168.455 223.193 168.586 222.851 168.586 222.419C168.586 221.986 168.464 221.638 168.219 221.374C167.975 221.111 167.633 220.979 167.194 220.979C166.893 220.979 166.623 221.039 166.385 221.158C166.153 221.277 165.936 221.471 165.735 221.741H165.105V217.808H169.038V218.514H165.877V221.054H165.773C165.93 220.816 166.143 220.628 166.413 220.49C166.689 220.345 166.996 220.273 167.335 220.273C167.755 220.273 168.116 220.364 168.417 220.546C168.724 220.722 168.963 220.966 169.132 221.28C169.301 221.594 169.386 221.961 169.386 222.381C169.386 222.814 169.292 223.193 169.104 223.519C168.922 223.839 168.662 224.087 168.323 224.263C167.984 224.438 167.583 224.526 167.119 224.526Z" fill="#231F20"/>
<path d="M243.875 224.441V217.808H244.712L247.206 222.654H247.065L249.548 217.808H250.376V224.441H249.605V218.947H249.708L247.422 223.397H246.848L244.534 218.937H244.637V224.441H243.875ZM253.61 224.526C253.284 224.526 252.992 224.466 252.735 224.347C252.478 224.222 252.274 224.053 252.123 223.839C251.979 223.626 251.907 223.388 251.907 223.124C251.907 222.773 252.001 222.497 252.189 222.296C252.383 222.095 252.685 221.954 253.092 221.873C253.506 221.785 254.046 221.741 254.711 221.741H255.294V222.287H254.739C254.369 222.287 254.055 222.299 253.798 222.324C253.541 222.35 253.331 222.393 253.168 222.456C253.011 222.513 252.895 222.591 252.819 222.691C252.75 222.792 252.716 222.92 252.716 223.077C252.716 223.334 252.81 223.538 252.998 223.689C253.193 223.833 253.443 223.905 253.751 223.905C254.014 223.905 254.25 223.842 254.457 223.717C254.67 223.591 254.839 223.425 254.965 223.218C255.096 223.011 255.162 222.782 255.162 222.531V221.459C255.162 221.082 255.065 220.81 254.87 220.64C254.682 220.471 254.394 220.386 254.005 220.386C253.729 220.386 253.456 220.427 253.186 220.509C252.923 220.584 252.65 220.709 252.368 220.885L252.095 220.283C252.277 220.17 252.474 220.073 252.688 219.991C252.907 219.91 253.133 219.847 253.365 219.803C253.603 219.759 253.836 219.737 254.061 219.737C254.463 219.737 254.801 219.8 255.077 219.925C255.36 220.051 255.573 220.245 255.717 220.509C255.868 220.772 255.943 221.111 255.943 221.525V224.441H255.219V223.406H255.247C255.172 223.62 255.059 223.811 254.908 223.98C254.758 224.15 254.573 224.285 254.353 224.385C254.133 224.479 253.886 224.526 253.61 224.526ZM257.516 224.441V219.822H258.278V220.894H258.24C258.353 220.543 258.548 220.27 258.824 220.076C259.1 219.881 259.448 219.768 259.868 219.737L260.235 219.718L260.301 220.443L259.699 220.499C259.266 220.537 258.93 220.678 258.692 220.923C258.454 221.167 258.335 221.478 258.335 221.854V224.441H257.516ZM263.989 224.441V223.745H265.701V218.476L266.134 218.514L264.318 219.681L263.96 219.06L265.917 217.808H266.51V223.745H268.091V224.441H263.989ZM269.715 224.441L272.961 218.147L272.989 218.523H269.273V217.808H273.685V218.42L270.609 224.441H269.715Z" fill="#231F20"/>
<path d="M347.912 224.441V217.808H348.749L351.243 222.654H351.102L353.586 217.808H354.414V224.441H353.642V218.947H353.745L351.459 223.397H350.885L348.571 218.937H348.674V224.441H347.912ZM357.647 224.526C357.321 224.526 357.029 224.466 356.772 224.347C356.515 224.222 356.311 224.053 356.16 223.839C356.016 223.626 355.944 223.388 355.944 223.124C355.944 222.773 356.038 222.497 356.226 222.296C356.421 222.095 356.722 221.954 357.129 221.873C357.543 221.785 358.083 221.741 358.748 221.741H359.331V222.287H358.776C358.406 222.287 358.092 222.299 357.835 222.324C357.578 222.35 357.368 222.393 357.205 222.456C357.048 222.513 356.932 222.591 356.856 222.691C356.787 222.792 356.753 222.92 356.753 223.077C356.753 223.334 356.847 223.538 357.035 223.689C357.23 223.833 357.481 223.905 357.788 223.905C358.051 223.905 358.287 223.842 358.494 223.717C358.707 223.591 358.876 223.425 359.002 223.218C359.133 223.011 359.199 222.782 359.199 222.531V221.459C359.199 221.082 359.102 220.81 358.908 220.64C358.719 220.471 358.431 220.386 358.042 220.386C357.766 220.386 357.493 220.427 357.223 220.509C356.96 220.584 356.687 220.709 356.405 220.885L356.132 220.283C356.314 220.17 356.512 220.073 356.725 219.991C356.944 219.91 357.17 219.847 357.402 219.803C357.641 219.759 357.873 219.737 358.098 219.737C358.5 219.737 358.839 219.8 359.115 219.925C359.397 220.051 359.61 220.245 359.754 220.509C359.905 220.772 359.98 221.111 359.98 221.525V224.441H359.256V223.406H359.284C359.209 223.62 359.096 223.811 358.945 223.98C358.795 224.15 358.61 224.285 358.39 224.385C358.171 224.479 357.923 224.526 357.647 224.526ZM361.553 224.441V219.822H362.315V220.894H362.278C362.39 220.543 362.585 220.27 362.861 220.076C363.137 219.881 363.485 219.768 363.905 219.737L364.272 219.718L364.338 220.443L363.736 220.499C363.303 220.537 362.968 220.678 362.729 220.923C362.491 221.167 362.372 221.478 362.372 221.854V224.441H361.553ZM368.026 224.441V223.745H369.738V218.476L370.171 218.514L368.355 219.681L367.998 219.06L369.955 217.808H370.547V223.745H372.128V224.441H368.026ZM375.097 224.526C374.859 224.526 374.624 224.498 374.392 224.441C374.16 224.379 373.94 224.291 373.733 224.178C373.533 224.059 373.351 223.915 373.188 223.745L373.498 223.115C373.743 223.372 373.997 223.554 374.26 223.66C374.53 223.761 374.809 223.811 375.097 223.811C375.411 223.811 375.684 223.755 375.916 223.642C376.154 223.522 376.355 223.35 376.518 223.124C376.681 222.892 376.804 222.607 376.885 222.268C376.967 221.929 377.007 221.537 377.007 221.092V220.424H377.036C376.986 220.744 376.876 221.02 376.706 221.252C376.537 221.484 376.324 221.663 376.067 221.788C375.809 221.907 375.521 221.967 375.201 221.967C374.806 221.967 374.455 221.879 374.147 221.703C373.846 221.528 373.608 221.283 373.432 220.97C373.263 220.65 373.178 220.286 373.178 219.878C373.178 219.458 373.269 219.088 373.451 218.768C373.633 218.442 373.884 218.188 374.204 218.006C374.524 217.818 374.887 217.724 375.295 217.724C375.835 217.724 376.286 217.852 376.65 218.109C377.02 218.36 377.299 218.727 377.487 219.21C377.675 219.693 377.77 220.283 377.77 220.979C377.77 221.732 377.663 222.375 377.45 222.908C377.243 223.435 376.938 223.836 376.537 224.112C376.142 224.388 375.662 224.526 375.097 224.526ZM375.352 221.289C375.628 221.289 375.872 221.23 376.085 221.111C376.299 220.985 376.465 220.816 376.584 220.603C376.703 220.383 376.763 220.132 376.763 219.85C376.763 219.561 376.703 219.31 376.584 219.097C376.465 218.884 376.299 218.718 376.085 218.599C375.878 218.473 375.631 218.41 375.342 218.41C375.066 218.41 374.822 218.473 374.608 218.599C374.401 218.718 374.238 218.887 374.119 219.107C374.006 219.32 373.95 219.568 373.95 219.85C373.95 220.138 374.009 220.389 374.128 220.603C374.248 220.816 374.411 220.985 374.618 221.111C374.831 221.23 375.076 221.289 375.352 221.289Z" fill="#231F20"/>
<rect x="197.584" y="23.2822" width="181.635" height="24.545" rx="12.2725" fill="#604C4C" fill-opacity="0.1"/>
<path d="M217.246 39.5547V31.0013H218.795V34.6223H222.758V31.0013H224.312V39.5547H222.758V35.9212H218.795V39.5547H217.246ZM230.019 36.8567V33.1396H231.531V39.5547H230.065V38.4145H229.998C229.854 38.7737 229.616 39.0674 229.284 39.2957C228.956 39.5241 228.551 39.6382 228.069 39.6382C227.648 39.6382 227.277 39.5449 226.954 39.3584C226.634 39.1691 226.383 38.8948 226.202 38.5356C226.021 38.1737 225.93 37.7365 225.93 37.2242V33.1396H227.442V36.9903C227.442 37.3968 227.554 37.7198 227.776 37.9593C227.999 38.1987 228.292 38.3185 228.654 38.3185C228.876 38.3185 229.092 38.2642 229.301 38.1556C229.51 38.047 229.681 37.8855 229.815 37.6711C229.951 37.4539 230.019 37.1825 230.019 36.8567ZM233.086 39.5547V33.1396H234.531V34.2297H234.606C234.74 33.8622 234.961 33.5754 235.27 33.3693C235.579 33.1605 235.948 33.0561 236.377 33.0561C236.811 33.0561 237.177 33.1619 237.475 33.3735C237.776 33.5823 237.988 33.8677 238.11 34.2297H238.177C238.319 33.8733 238.558 33.5893 238.895 33.3777C239.235 33.1633 239.637 33.0561 240.102 33.0561C240.693 33.0561 241.174 33.2426 241.547 33.6157C241.92 33.9888 242.107 34.5332 242.107 35.2487V39.5547H240.591V35.4826C240.591 35.0845 240.485 34.7935 240.274 34.6097C240.062 34.4232 239.803 34.3299 239.497 34.3299C239.132 34.3299 238.847 34.4441 238.641 34.6724C238.437 34.8979 238.336 35.1917 238.336 35.5536V39.5547H236.853V35.42C236.853 35.0886 236.753 34.8241 236.552 34.6264C236.355 34.4288 236.096 34.3299 235.775 34.3299C235.558 34.3299 235.361 34.3856 235.182 34.497C235.004 34.6056 234.862 34.7601 234.756 34.9606C234.651 35.1583 234.598 35.3894 234.598 35.6539V39.5547H233.086ZM243.641 39.5547V33.1396H245.153V39.5547H243.641ZM244.401 32.2292C244.161 32.2292 243.955 32.1498 243.783 31.9911C243.61 31.8296 243.524 31.6361 243.524 31.4106C243.524 31.1823 243.61 30.9887 243.783 30.83C243.955 30.6685 244.161 30.5878 244.401 30.5878C244.643 30.5878 244.849 30.6685 245.019 30.83C245.192 30.9887 245.278 31.1823 245.278 31.4106C245.278 31.6361 245.192 31.8296 245.019 31.9911C244.849 32.1498 244.643 32.2292 244.401 32.2292ZM249.088 39.6675C248.584 39.6675 248.133 39.538 247.735 39.279C247.337 39.0201 247.022 38.6442 246.791 38.1514C246.56 37.6586 246.444 37.0599 246.444 36.3555C246.444 35.6427 246.561 35.0413 246.795 34.5513C247.032 34.0584 247.351 33.6867 247.752 33.4362C248.152 33.1828 248.599 33.0561 249.092 33.0561C249.468 33.0561 249.777 33.1201 250.019 33.2482C250.262 33.3735 250.454 33.5253 250.596 33.7034C250.738 33.8789 250.848 34.0445 250.926 34.2004H250.988V31.0013H252.504V39.5547H251.018V38.544H250.926C250.848 38.6999 250.735 38.8656 250.587 39.041C250.44 39.2136 250.245 39.3612 250.003 39.4837C249.76 39.6062 249.456 39.6675 249.088 39.6675ZM249.51 38.427C249.83 38.427 250.103 38.3407 250.328 38.1681C250.554 37.9927 250.725 37.7491 250.842 37.4372C250.959 37.1254 251.018 36.762 251.018 36.3472C251.018 35.9323 250.959 35.5717 250.842 35.2654C250.728 34.9592 250.558 34.7211 250.333 34.5513C250.11 34.3814 249.836 34.2965 249.51 34.2965C249.173 34.2965 248.892 34.3842 248.666 34.5596C248.441 34.735 248.271 34.9773 248.157 35.2863C248.042 35.5954 247.985 35.949 247.985 36.3472C247.985 36.7481 248.042 37.1059 248.157 37.4205C248.274 37.7324 248.445 37.9788 248.67 38.1597C248.899 38.3379 249.178 38.427 249.51 38.427ZM254.115 39.5547V33.1396H255.627V39.5547H254.115ZM254.876 32.2292C254.636 32.2292 254.43 32.1498 254.257 31.9911C254.085 31.8296 253.998 31.6361 253.998 31.4106C253.998 31.1823 254.085 30.9887 254.257 30.83C254.43 30.6685 254.636 30.5878 254.876 30.5878C255.118 30.5878 255.324 30.6685 255.494 30.83C255.666 30.9887 255.753 31.1823 255.753 31.4106C255.753 31.6361 255.666 31.8296 255.494 31.9911C255.324 32.1498 255.118 32.2292 254.876 32.2292ZM260.385 33.1396V34.309H256.698V33.1396H260.385ZM257.608 31.6027H259.12V37.6252C259.12 37.8284 259.15 37.9843 259.212 38.0929C259.276 38.1987 259.359 38.2711 259.462 38.3101C259.565 38.3491 259.68 38.3686 259.805 38.3686C259.899 38.3686 259.986 38.3616 260.064 38.3477C260.144 38.3338 260.206 38.3212 260.248 38.3101L260.502 39.492C260.422 39.5199 260.306 39.5505 260.156 39.5839C260.008 39.6173 259.827 39.6368 259.613 39.6424C259.234 39.6535 258.893 39.5965 258.589 39.4712C258.286 39.3431 258.045 39.1454 257.867 38.8781C257.692 38.6108 257.605 38.2767 257.608 37.8757V31.6027ZM262.589 41.9603C262.383 41.9603 262.193 41.9436 262.017 41.9102C261.845 41.8796 261.707 41.8434 261.604 41.8016L261.955 40.6239C262.175 40.6879 262.371 40.7185 262.544 40.7157C262.716 40.713 262.868 40.6587 262.999 40.5529C263.132 40.4498 263.245 40.2772 263.337 40.035L263.467 39.6883L261.14 33.1396H262.744L264.222 37.9843H264.289L265.772 33.1396H267.38L264.811 40.3315C264.692 40.6712 264.533 40.9622 264.335 41.2044C264.138 41.4494 263.895 41.636 263.609 41.764C263.325 41.8949 262.985 41.9603 262.589 41.9603ZM277.073 33.1396L274.789 39.5547H273.118L270.834 33.1396H272.446L273.92 37.905H273.987L275.466 33.1396H277.073ZM283.19 34.8353L281.812 34.9856C281.773 34.8464 281.704 34.7155 281.607 34.593C281.512 34.4705 281.384 34.3717 281.223 34.2965C281.061 34.2213 280.864 34.1837 280.63 34.1837C280.315 34.1837 280.051 34.252 279.836 34.3884C279.625 34.5248 279.52 34.7016 279.523 34.9188C279.52 35.1054 279.588 35.2571 279.728 35.374C279.87 35.491 280.104 35.587 280.429 35.6622L281.524 35.8961C282.13 36.027 282.582 36.2344 282.877 36.5184C283.175 36.8024 283.325 37.1741 283.328 37.6335C283.325 38.0372 283.207 38.3936 282.973 38.7027C282.742 39.009 282.42 39.2484 282.008 39.421C281.596 39.5937 281.123 39.68 280.588 39.68C279.803 39.68 279.171 39.5157 278.692 39.1872C278.213 38.8558 277.928 38.395 277.836 37.8047L279.31 37.6627C279.377 37.9523 279.519 38.1709 279.736 38.3185C279.953 38.466 280.236 38.5398 280.584 38.5398C280.943 38.5398 281.231 38.466 281.448 38.3185C281.668 38.1709 281.778 37.9885 281.778 37.7713C281.778 37.5876 281.707 37.4358 281.565 37.3161C281.426 37.1964 281.209 37.1045 280.914 37.0405L279.82 36.8107C279.204 36.6827 278.749 36.4669 278.454 36.1634C278.159 35.8571 278.012 35.4701 278.015 35.0023C278.012 34.607 278.12 34.2645 278.337 33.9749C278.557 33.6826 278.862 33.457 279.252 33.2983C279.644 33.1368 280.097 33.0561 280.609 33.0561C281.361 33.0561 281.952 33.2162 282.384 33.5364C282.818 33.8566 283.087 34.2895 283.19 34.8353ZM287.183 32.3002V31.0013H294.007V32.3002H291.363V39.5547H289.826V32.3002H287.183ZM297.165 39.68C296.522 39.68 295.967 39.5463 295.499 39.279C295.034 39.009 294.676 38.6275 294.426 38.1347C294.175 37.6391 294.05 37.0558 294.05 36.3847C294.05 35.7249 294.175 35.1457 294.426 34.6473C294.679 34.1462 295.033 33.7564 295.487 33.4779C295.94 33.1967 296.474 33.0561 297.086 33.0561C297.481 33.0561 297.855 33.1201 298.205 33.2482C298.559 33.3735 298.871 33.5684 299.141 33.8329C299.414 34.0974 299.628 34.4343 299.784 34.8436C299.94 35.2501 300.018 35.7346 300.018 36.297V36.7606H294.76V35.7416H298.569C298.566 35.452 298.503 35.1944 298.381 34.9689C298.258 34.7406 298.087 34.561 297.867 34.4302C297.65 34.2993 297.397 34.2339 297.107 34.2339C296.798 34.2339 296.526 34.309 296.293 34.4594C296.059 34.607 295.876 34.8019 295.745 35.0441C295.617 35.2835 295.552 35.5467 295.549 35.8334V36.723C295.549 37.0961 295.617 37.4163 295.754 37.6836C295.89 37.9481 296.081 38.1514 296.326 38.2934C296.571 38.4326 296.858 38.5022 297.186 38.5022C297.406 38.5022 297.605 38.4716 297.784 38.4103C297.962 38.3463 298.116 38.253 298.247 38.1305C298.378 38.008 298.477 37.8563 298.544 37.6753L299.955 37.834C299.866 38.2071 299.696 38.5328 299.446 38.8113C299.198 39.0869 298.881 39.3013 298.494 39.4545C298.107 39.6048 297.664 39.68 297.165 39.68ZM301.297 39.5547V33.1396H302.742V34.2297H302.817C302.951 33.8622 303.172 33.5754 303.481 33.3693C303.79 33.1605 304.159 33.0561 304.588 33.0561C305.022 33.0561 305.389 33.1619 305.687 33.3735C305.987 33.5823 306.199 33.8677 306.321 34.2297H306.388C306.53 33.8733 306.77 33.5893 307.107 33.3777C307.446 33.1633 307.849 33.0561 308.314 33.0561C308.904 33.0561 309.385 33.2426 309.759 33.6157C310.132 33.9888 310.318 34.5332 310.318 35.2487V39.5547H308.802V35.4826C308.802 35.0845 308.696 34.7935 308.485 34.6097C308.273 34.4232 308.014 34.3299 307.708 34.3299C307.343 34.3299 307.058 34.4441 306.852 34.6724C306.648 34.8979 306.547 35.1917 306.547 35.5536V39.5547H305.064V35.42C305.064 35.0886 304.964 34.8241 304.763 34.6264C304.566 34.4288 304.307 34.3299 303.987 34.3299C303.769 34.3299 303.572 34.3856 303.394 34.497C303.215 34.6056 303.073 34.7601 302.968 34.9606C302.862 35.1583 302.809 35.3894 302.809 35.6539V39.5547H301.297ZM311.852 41.9603V33.1396H313.339V34.2004H313.427C313.505 34.0445 313.614 33.8789 313.756 33.7034C313.898 33.5253 314.091 33.3735 314.333 33.2482C314.575 33.1201 314.884 33.0561 315.26 33.0561C315.756 33.0561 316.203 33.1828 316.601 33.4362C317.002 33.6867 317.319 34.0584 317.553 34.5513C317.79 35.0413 317.908 35.6427 317.908 36.3555C317.908 37.0599 317.792 37.6586 317.561 38.1514C317.33 38.6442 317.016 39.0201 316.617 39.279C316.219 39.538 315.768 39.6675 315.264 39.6675C314.897 39.6675 314.592 39.6062 314.35 39.4837C314.107 39.3612 313.912 39.2136 313.765 39.041C313.62 38.8656 313.507 38.6999 313.427 38.544H313.364V41.9603H311.852ZM313.335 36.3472C313.335 36.762 313.393 37.1254 313.51 37.4372C313.63 37.7491 313.801 37.9927 314.024 38.1681C314.249 38.3407 314.522 38.427 314.842 38.427C315.176 38.427 315.456 38.3379 315.682 38.1597C315.907 37.9788 316.077 37.7324 316.191 37.4205C316.308 37.1059 316.367 36.7481 316.367 36.3472C316.367 35.949 316.31 35.5954 316.196 35.2863C316.081 34.9773 315.912 34.735 315.686 34.5596C315.46 34.3842 315.179 34.2965 314.842 34.2965C314.519 34.2965 314.245 34.3814 314.02 34.5513C313.794 34.7211 313.623 34.9592 313.506 35.2654C313.392 35.5717 313.335 35.9323 313.335 36.3472ZM322.043 39.68C321.399 39.68 320.844 39.5463 320.376 39.279C319.911 39.009 319.553 38.6275 319.303 38.1347C319.052 37.6391 318.927 37.0558 318.927 36.3847C318.927 35.7249 319.052 35.1457 319.303 34.6473C319.556 34.1462 319.91 33.7564 320.364 33.4779C320.818 33.1967 321.351 33.0561 321.963 33.0561C322.359 33.0561 322.732 33.1201 323.083 33.2482C323.436 33.3735 323.748 33.5684 324.018 33.8329C324.291 34.0974 324.505 34.4343 324.661 34.8436C324.817 35.2501 324.895 35.7346 324.895 36.297V36.7606H319.637V35.7416H323.446C323.443 35.452 323.38 35.1944 323.258 34.9689C323.135 34.7406 322.964 34.561 322.744 34.4302C322.527 34.2993 322.274 34.2339 321.984 34.2339C321.675 34.2339 321.404 34.309 321.17 34.4594C320.936 34.607 320.753 34.8019 320.623 35.0441C320.495 35.2835 320.429 35.5467 320.426 35.8334V36.723C320.426 37.0961 320.495 37.4163 320.631 37.6836C320.767 37.9481 320.958 38.1514 321.203 38.2934C321.448 38.4326 321.735 38.5022 322.063 38.5022C322.283 38.5022 322.483 38.4716 322.661 38.4103C322.839 38.3463 322.993 38.253 323.124 38.1305C323.255 38.008 323.354 37.8563 323.421 37.6753L324.832 37.834C324.743 38.2071 324.574 38.5328 324.323 38.8113C324.075 39.0869 323.758 39.3013 323.371 39.4545C322.984 39.6048 322.541 39.68 322.043 39.68ZM326.174 39.5547V33.1396H327.64V34.2088H327.707C327.824 33.8385 328.024 33.5531 328.308 33.3526C328.595 33.1494 328.922 33.0477 329.29 33.0477C329.373 33.0477 329.467 33.0519 329.57 33.0603C329.675 33.0658 329.763 33.0756 329.833 33.0895V34.4803C329.769 34.458 329.667 34.4385 329.528 34.4218C329.391 34.4023 329.259 34.3926 329.131 34.3926C328.855 34.3926 328.608 34.4524 328.388 34.5722C328.171 34.6891 327.999 34.852 327.874 35.0608C327.749 35.2696 327.686 35.5105 327.686 35.7833V39.5547H326.174ZM332.568 39.6842C332.162 39.6842 331.796 39.6118 331.47 39.467C331.147 39.3194 330.891 39.1022 330.701 38.8155C330.515 38.5287 330.422 38.1751 330.422 37.7546C330.422 37.3927 330.488 37.0934 330.622 36.8567C330.756 36.62 330.938 36.4307 331.169 36.2887C331.4 36.1467 331.661 36.0395 331.95 35.9671C332.243 35.8919 332.545 35.8376 332.857 35.8042C333.232 35.7652 333.537 35.7304 333.771 35.6998C334.005 35.6664 334.175 35.6163 334.281 35.5494C334.389 35.4798 334.444 35.3726 334.444 35.2279V35.2028C334.444 34.8882 334.35 34.6445 334.164 34.4719C333.977 34.2993 333.709 34.213 333.358 34.213C332.987 34.213 332.694 34.2937 332.476 34.4552C332.262 34.6167 332.117 34.8074 332.042 35.0274L330.63 34.8269C330.742 34.4371 330.926 34.1114 331.182 33.8496C331.438 33.5851 331.751 33.3874 332.121 33.2566C332.492 33.1229 332.901 33.0561 333.349 33.0561C333.658 33.0561 333.966 33.0923 334.272 33.1647C334.579 33.2371 334.858 33.3568 335.112 33.5239C335.365 33.6881 335.568 33.9123 335.722 34.1963C335.878 34.4803 335.955 34.8353 335.955 35.2613V39.5547H334.502V38.6735H334.452C334.36 38.8516 334.231 39.0187 334.064 39.1746C333.899 39.3278 333.692 39.4517 333.441 39.5463C333.193 39.6382 332.902 39.6842 332.568 39.6842ZM332.961 38.5732C333.264 38.5732 333.528 38.5134 333.75 38.3936C333.973 38.2711 334.144 38.1096 334.264 37.9092C334.387 37.7087 334.448 37.4901 334.448 37.2535V36.4975C334.4 36.5365 334.32 36.5727 334.206 36.6061C334.094 36.6395 333.969 36.6687 333.83 36.6938C333.69 36.7189 333.553 36.7411 333.416 36.7606C333.28 36.7801 333.161 36.7968 333.061 36.8107C332.836 36.8414 332.634 36.8915 332.456 36.9611C332.277 37.0307 332.137 37.1282 332.034 37.2535C331.931 37.376 331.879 37.5347 331.879 37.7296C331.879 38.008 331.981 38.2182 332.184 38.3602C332.387 38.5022 332.646 38.5732 332.961 38.5732ZM340.679 33.1396V34.309H336.991V33.1396H340.679ZM337.902 31.6027H339.414V37.6252C339.414 37.8284 339.444 37.9843 339.505 38.0929C339.57 38.1987 339.653 38.2711 339.756 38.3101C339.859 38.3491 339.973 38.3686 340.099 38.3686C340.193 38.3686 340.28 38.3616 340.357 38.3477C340.438 38.3338 340.499 38.3212 340.541 38.3101L340.796 39.492C340.715 39.5199 340.6 39.5505 340.449 39.5839C340.302 39.6173 340.121 39.6368 339.906 39.6424C339.528 39.6535 339.187 39.5965 338.883 39.4712C338.58 39.3431 338.339 39.1454 338.161 38.8781C337.985 38.6108 337.899 38.2767 337.902 37.8757V31.6027ZM346.032 36.8567V33.1396H347.544V39.5547H346.078V38.4145H346.011C345.867 38.7737 345.629 39.0674 345.297 39.2957C344.969 39.5241 344.564 39.6382 344.082 39.6382C343.661 39.6382 343.29 39.5449 342.967 39.3584C342.647 39.1691 342.396 38.8948 342.215 38.5356C342.034 38.1737 341.944 37.7365 341.944 37.2242V33.1396H343.455V36.9903C343.455 37.3968 343.567 37.7198 343.79 37.9593C344.012 38.1987 344.305 38.3185 344.667 38.3185C344.889 38.3185 345.105 38.2642 345.314 38.1556C345.523 38.047 345.694 37.8855 345.828 37.6711C345.964 37.4539 346.032 37.1825 346.032 36.8567ZM349.099 39.5547V33.1396H350.565V34.2088H350.632C350.749 33.8385 350.949 33.5531 351.233 33.3526C351.52 33.1494 351.847 33.0477 352.214 33.0477C352.298 33.0477 352.391 33.0519 352.494 33.0603C352.6 33.0658 352.688 33.0756 352.757 33.0895V34.4803C352.693 34.458 352.592 34.4385 352.453 34.4218C352.316 34.4023 352.184 34.3926 352.056 34.3926C351.78 34.3926 351.532 34.4524 351.312 34.5722C351.095 34.6891 350.924 34.852 350.799 35.0608C350.673 35.2696 350.611 35.5105 350.611 35.7833V39.5547H349.099ZM356.338 39.68C355.695 39.68 355.139 39.5463 354.671 39.279C354.206 39.009 353.849 38.6275 353.598 38.1347C353.347 37.6391 353.222 37.0558 353.222 36.3847C353.222 35.7249 353.347 35.1457 353.598 34.6473C353.851 34.1462 354.205 33.7564 354.659 33.4779C355.113 33.1967 355.646 33.0561 356.258 33.0561C356.654 33.0561 357.027 33.1201 357.378 33.2482C357.731 33.3735 358.043 33.5684 358.313 33.8329C358.586 34.0974 358.8 34.4343 358.956 34.8436C359.112 35.2501 359.19 35.7346 359.19 36.297V36.7606H353.932V35.7416H357.741C357.738 35.452 357.676 35.1944 357.553 34.9689C357.431 34.7406 357.259 34.561 357.039 34.4302C356.822 34.2993 356.569 34.2339 356.279 34.2339C355.97 34.2339 355.699 34.309 355.465 34.4594C355.231 34.607 355.049 34.8019 354.918 35.0441C354.79 35.2835 354.724 35.5467 354.721 35.8334V36.723C354.721 37.0961 354.79 37.4163 354.926 37.6836C355.062 37.9481 355.253 38.1514 355.498 38.2934C355.743 38.4326 356.03 38.5022 356.359 38.5022C356.579 38.5022 356.778 38.4716 356.956 38.4103C357.134 38.3463 357.289 38.253 357.419 38.1305C357.55 38.008 357.649 37.8563 357.716 37.6753L359.128 37.834C359.038 38.2071 358.869 38.5328 358.618 38.8113C358.37 39.0869 358.053 39.3013 357.666 39.4545C357.279 39.6048 356.836 39.68 356.338 39.68Z" fill="#231F20"/>
</svg>
