<svg width="155" height="129" viewBox="0 0 155 129" fill="none" xmlns="http://www.w3.org/2000/svg">
<path d="M0.904297 13.4784C0.904297 6.0345 6.9388 0 14.3827 0H140.569C148.013 0 154.047 6.0345 154.047 13.4784V115.162C154.047 122.605 148.013 128.64 140.569 128.64H14.3827C6.93879 128.64 0.904297 122.605 0.904297 115.162V13.4784Z" fill="white"/>
<path d="M39.22 45.3632C39.2217 46.6257 38.8979 47.8672 38.28 48.968C37.662 50.0689 36.7707 50.9918 35.6921 51.6478C34.6136 52.3039 33.3841 52.6708 32.1224 52.7132C30.8607 52.7556 29.6094 52.4721 28.4892 51.89C27.3689 51.3079 26.4177 50.4468 25.7272 49.39C25.0367 48.3332 24.6303 47.1162 24.5472 45.8565C24.4641 44.5968 24.7071 43.337 25.2527 42.1986C25.7983 41.0602 26.6282 40.0816 27.6622 39.3574V25.2157C27.6622 24.0982 28.1061 23.0265 28.8963 22.2363C29.6865 21.4462 30.7582 21.0023 31.8756 21.0023C32.9931 21.0023 34.0648 21.4462 34.855 22.2363C35.6451 23.0265 36.089 24.0982 36.089 25.2157V39.3108C37.0625 39.9902 37.8562 40.8962 38.4016 41.9506C38.9471 43.005 39.2279 44.1762 39.22 45.3632Z" stroke="#835F5F" stroke-width="1.16393" stroke-miterlimit="10" stroke-linecap="round"/>
<path d="M31.8774 48.8205C33.8958 48.8205 35.5321 47.1842 35.5321 45.1658C35.5321 43.1473 33.8958 41.511 31.8774 41.511C29.8589 41.511 28.2227 43.1473 28.2227 45.1658C28.2227 47.1842 29.8589 48.8205 31.8774 48.8205Z" stroke="#835F5F" stroke-width="1.16393" stroke-miterlimit="10" stroke-linecap="round"/>
<path d="M31.877 30.7554V41.51" stroke="#835F5F" stroke-width="1.16393" stroke-miterlimit="10" stroke-linecap="round"/>
<path d="M38.0908 25.693H42.3042" stroke="#835F5F" stroke-width="1.16393" stroke-miterlimit="10"/>
<path d="M38.0908 36.832H42.3042" stroke="#835F5F" stroke-width="1.16393" stroke-miterlimit="10"/>
<path d="M37.4844 31.2689H42.9083" stroke="#835F5F" stroke-width="1.16393" stroke-miterlimit="10"/>
<path d="M38.543 28.4746H41.8485" stroke="#835F5F" stroke-width="1.16393" stroke-miterlimit="10"/>
<path d="M38.543 34.0504H41.8485" stroke="#835F5F" stroke-width="1.16393" stroke-miterlimit="10"/>
<path d="M23.7521 87.7492C22.4624 87.7492 21.3139 87.5275 20.3064 87.0842C19.3046 86.6352 18.513 86.0192 17.9316 85.2362C17.3558 84.4474 17.0593 83.5378 17.0421 82.5073H20.8073C20.8303 82.9391 20.9713 83.319 21.2304 83.6472C21.4952 83.9696 21.8464 84.22 22.284 84.3985C22.7215 84.577 23.2138 84.6662 23.7607 84.6662C24.3306 84.6662 24.8344 84.5655 25.2719 84.364C25.7095 84.1625 26.052 83.8832 26.2996 83.5263C26.5472 83.1694 26.6709 82.7577 26.6709 82.2914C26.6709 81.8193 26.5385 81.4019 26.2737 81.0392C26.0146 80.6707 25.6404 80.3829 25.151 80.1756C24.6674 79.9684 24.0917 79.8647 23.4239 79.8647H21.7745V77.1186H23.4239C23.9881 77.1186 24.4861 77.0207 24.9179 76.825C25.3554 76.6292 25.6951 76.3586 25.9369 76.0132C26.1787 75.662 26.2996 75.2532 26.2996 74.7869C26.2996 74.3436 26.1931 73.955 25.9801 73.6211C25.7728 73.2814 25.4792 73.0166 25.0992 72.8266C24.725 72.6366 24.2875 72.5416 23.7866 72.5416C23.28 72.5416 22.8165 72.6337 22.3962 72.818C21.976 72.9964 21.6392 73.2526 21.3859 73.5865C21.1325 73.9205 20.9972 74.312 20.98 74.761H17.3961C17.4134 73.742 17.7041 72.8439 18.2683 72.0667C18.8326 71.2894 19.5925 70.6821 20.5482 70.2445C21.5096 69.8012 22.5949 69.5796 23.8039 69.5796C25.0244 69.5796 26.0923 69.8012 27.0077 70.2445C27.9231 70.6878 28.6341 71.2866 29.1408 72.0407C29.6532 72.7892 29.9065 73.6297 29.9007 74.5624C29.9065 75.5526 29.5985 76.3788 28.9767 77.0409C28.3607 77.7029 27.5575 78.1232 26.5673 78.3017V78.4398C27.8684 78.6068 28.8587 79.0587 29.538 79.7957C30.2231 80.5268 30.5628 81.4422 30.557 82.5418C30.5628 83.5493 30.272 84.4446 29.6848 85.2275C29.1033 86.0105 28.3002 86.6265 27.2754 87.0756C26.2507 87.5247 25.0762 87.7492 23.7521 87.7492ZM33.2449 87.5074V84.813L39.5404 78.9839C40.0758 78.4657 40.5248 77.9994 40.8875 77.5849C41.256 77.1704 41.5352 76.7645 41.7252 76.3673C41.9152 75.9643 42.0102 75.5296 42.0102 75.0633C42.0102 74.5451 41.8922 74.0989 41.6561 73.7247C41.4201 73.3447 41.0977 73.054 40.6889 72.8525C40.2802 72.6453 39.8167 72.5416 39.2986 72.5416C38.7574 72.5416 38.2853 72.651 37.8823 72.8698C37.4793 73.0886 37.1684 73.4023 36.9496 73.8111C36.7309 74.2198 36.6215 74.7063 36.6215 75.2705H33.0722C33.0722 74.1133 33.3341 73.1087 33.858 72.2566C34.3819 71.4046 35.116 70.7454 36.0602 70.2791C37.0043 69.8127 38.0924 69.5796 39.3245 69.5796C40.5911 69.5796 41.6936 69.8041 42.632 70.2531C43.5761 70.6964 44.3102 71.3125 44.8341 72.1012C45.358 72.8899 45.6199 73.7938 45.6199 74.8128C45.6199 75.4807 45.4875 76.1399 45.2227 76.7904C44.9636 77.441 44.5002 78.1635 43.8323 78.958C43.1645 79.7467 42.2232 80.6938 41.0084 81.7992L38.4264 84.3294V84.4503H45.8531V87.5074H33.2449ZM50.7474 87.7319C50.1775 87.7319 49.6881 87.5304 49.2793 87.1274C48.8763 86.7187 48.6748 86.2293 48.6748 85.6593C48.6748 85.0951 48.8763 84.6115 49.2793 84.2085C49.6881 83.8055 50.1775 83.604 50.7474 83.604C51.3001 83.604 51.7837 83.8055 52.1982 84.2085C52.6127 84.6115 52.82 85.0951 52.82 85.6593C52.82 86.0393 52.7221 86.3876 52.5264 86.7043C52.3364 87.0151 52.086 87.2656 51.7751 87.4556C51.4642 87.6398 51.1216 87.7319 50.7474 87.7319ZM61.6911 87.7492C60.3612 87.7492 59.1781 87.5333 58.1418 87.1015C57.1113 86.664 56.3024 86.0681 55.7151 85.3139C55.1279 84.5597 54.8343 83.7048 54.8343 82.7491C54.8343 82.0122 55.0012 81.3357 55.3352 80.7197C55.6748 80.0979 56.1354 79.5826 56.7169 79.1739C57.2984 78.7594 57.9489 78.4945 58.6686 78.3794V78.2585C57.7244 78.0685 56.9587 77.6108 56.3715 76.8854C55.7842 76.1542 55.4906 75.3051 55.4906 74.3379C55.4906 73.4225 55.7583 72.6078 56.2937 71.8939C56.8292 71.1743 57.5632 70.6101 58.4959 70.2013C59.4343 69.7868 60.4993 69.5796 61.6911 69.5796C62.8828 69.5796 63.945 69.7868 64.8777 70.2013C65.8161 70.6158 66.553 71.1829 67.0884 71.9026C67.6238 72.6165 67.8944 73.4282 67.9002 74.3379C67.8944 75.3108 67.5951 76.16 67.0021 76.8854C66.4091 77.6108 65.6491 78.0685 64.7222 78.2585V78.3794C65.4304 78.4945 66.0723 78.7594 66.648 79.1739C67.2295 79.5826 67.6901 80.0979 68.0297 80.7197C68.3752 81.3357 68.5507 82.0122 68.5565 82.7491C68.5507 83.7048 68.2543 84.5597 67.667 85.3139C67.0798 86.0681 66.268 86.664 65.2317 87.1015C64.2012 87.5333 63.021 87.7492 61.6911 87.7492ZM61.6911 85.003C62.2841 85.003 62.8022 84.8965 63.2455 84.6835C63.6888 84.4647 64.0342 84.1653 64.2818 83.7854C64.5351 83.3996 64.6618 82.9563 64.6618 82.4555C64.6618 81.9431 64.5322 81.4911 64.2732 81.0997C64.0141 80.7024 63.6629 80.3915 63.2196 80.167C62.7763 79.9367 62.2668 79.8216 61.6911 79.8216C61.1211 79.8216 60.6116 79.9367 60.1626 80.167C59.7135 80.3915 59.3594 80.7024 59.1004 81.0997C58.847 81.4911 58.7204 81.9431 58.7204 82.4555C58.7204 82.9563 58.8442 83.3996 59.0917 83.7854C59.3393 84.1653 59.6876 84.4647 60.1366 84.6835C60.5857 84.8965 61.1038 85.003 61.6911 85.003ZM61.6911 77.1013C62.1862 77.1013 62.6266 77.0006 63.0124 76.799C63.3981 76.5975 63.7003 76.3183 63.9191 75.9614C64.1379 75.6044 64.2473 75.1928 64.2473 74.7265C64.2473 74.2659 64.1379 73.8629 63.9191 73.5175C63.7003 73.1663 63.401 72.8928 63.021 72.6971C62.641 72.4956 62.1977 72.3948 61.6911 72.3948C61.1902 72.3948 60.7469 72.4956 60.3612 72.6971C59.9754 72.8928 59.6732 73.1663 59.4544 73.5175C59.2414 73.8629 59.1349 74.2659 59.1349 74.7265C59.1349 75.1928 59.2443 75.6044 59.4631 75.9614C59.6818 76.3183 59.9841 76.5975 60.3698 76.799C60.7555 77.0006 61.196 77.1013 61.6911 77.1013ZM78.8654 69.8214V87.5074H75.1262V73.3707H75.0225L70.9724 75.9096V72.5934L75.3507 69.8214H78.8654ZM87.2227 78.1894C86.4397 78.1894 85.7258 77.9994 85.081 77.6194C84.442 77.2337 83.9325 76.7213 83.5525 76.0823C83.1725 75.4375 82.9825 74.7236 82.9825 73.9406C82.9825 73.1634 83.1725 72.4553 83.5525 71.8162C83.9325 71.1714 84.442 70.659 85.081 70.2791C85.7258 69.8933 86.4397 69.7005 87.2227 69.7005C88.0057 69.7005 88.7167 69.8933 89.3557 70.2791C90.0005 70.659 90.5129 71.1714 90.8929 71.8162C91.2729 72.4553 91.4628 73.1634 91.4628 73.9406C91.4628 74.7236 91.2729 75.4375 90.8929 76.0823C90.5129 76.7213 90.0005 77.2337 89.3557 77.6194C88.7167 77.9994 88.0057 78.1894 87.2227 78.1894ZM87.2227 75.7369C87.5566 75.7369 87.8589 75.6563 88.1294 75.495C88.4 75.3338 88.613 75.118 88.7685 74.8474C88.9297 74.5768 89.0103 74.2745 89.0103 73.9406C89.0103 73.6125 88.9297 73.3131 88.7685 73.0425C88.613 72.7719 88.4 72.556 88.1294 72.3948C87.8589 72.2336 87.5566 72.153 87.2227 72.153C86.8945 72.153 86.5952 72.2336 86.3246 72.3948C86.054 72.556 85.8381 72.7719 85.6769 73.0425C85.5157 73.3131 85.4351 73.6125 85.4351 73.9406C85.4351 74.2745 85.5157 74.5768 85.6769 74.8474C85.8381 75.118 86.054 75.3338 86.3246 75.495C86.5952 75.6563 86.8945 75.7369 87.2227 75.7369ZM109.512 76.0132H105.729C105.66 75.5238 105.519 75.0892 105.306 74.7092C105.093 74.3235 104.819 73.9953 104.486 73.7247C104.152 73.4541 103.766 73.2469 103.328 73.1029C102.897 72.959 102.427 72.8871 101.921 72.8871C101.005 72.8871 100.208 73.1145 99.5286 73.5693C98.8493 74.0183 98.3225 74.6747 97.9483 75.5382C97.5741 76.396 97.387 77.4381 97.387 78.6644C97.387 79.9252 97.5741 80.9845 97.9483 81.8423C98.3283 82.7001 98.8579 83.3478 99.5373 83.7854C100.217 84.2229 101.002 84.4417 101.895 84.4417C102.396 84.4417 102.859 84.3755 103.285 84.2431C103.717 84.1107 104.1 83.9178 104.434 83.6645C104.768 83.4054 105.044 83.0916 105.263 82.7232C105.487 82.3547 105.643 81.9344 105.729 81.4624L109.512 81.4796C109.414 82.2914 109.169 83.0744 108.778 83.8286C108.392 84.577 107.871 85.2477 107.214 85.8407C106.564 86.4279 105.787 86.8942 104.883 87.2397C103.985 87.5793 102.969 87.7492 101.834 87.7492C100.257 87.7492 98.8464 87.3922 97.6029 86.6784C96.3651 85.9645 95.3864 84.9311 94.6667 83.5781C93.9528 82.2252 93.5959 80.5873 93.5959 78.6644C93.5959 76.7357 93.9586 75.0949 94.684 73.742C95.4094 72.3891 96.3939 71.3585 97.6374 70.6504C98.881 69.9365 100.28 69.5796 101.834 69.5796C102.859 69.5796 103.809 69.7235 104.684 70.0113C105.565 70.2992 106.345 70.7195 107.024 71.2722C107.704 71.8191 108.257 72.4898 108.683 73.2843C109.114 74.0788 109.391 74.9884 109.512 76.0132Z" fill="#231F20"/>
<path d="M16.0378 108.887L19.096 101.931H19.8458L22.9041 108.887H22.0261L21.1678 106.904L21.5821 107.15H17.3498L17.7642 106.904L16.9158 108.887H16.0378ZM19.4512 102.908L17.8826 106.617L17.6458 106.43H21.296L21.0592 106.617L19.4808 102.908H19.4512ZM25.1108 108.887L23.0588 104.043H23.9664L25.604 108.147H25.4561L27.1233 104.043H27.9915L25.9296 108.887H25.1108ZM31.1525 108.975C30.6263 108.975 30.1725 108.877 29.7911 108.679C29.4096 108.475 29.1136 108.186 28.9032 107.811C28.6993 107.436 28.5973 106.989 28.5973 106.469C28.5973 105.976 28.696 105.542 28.8933 105.167C29.0906 104.792 29.3668 104.496 29.722 104.279C30.0772 104.062 30.4915 103.954 30.965 103.954C31.4254 103.954 31.8135 104.056 32.1292 104.26C32.4514 104.457 32.6981 104.736 32.8691 105.098C33.0401 105.453 33.1256 105.881 33.1256 106.381V106.677H29.2287V106.104H32.583L32.4054 106.262C32.4054 105.736 32.2837 105.328 32.0404 105.039C31.797 104.743 31.4419 104.595 30.9749 104.595C30.6526 104.595 30.3731 104.671 30.1363 104.822C29.9062 104.967 29.7253 105.174 29.5937 105.443C29.4688 105.707 29.4063 106.019 29.4063 106.381V106.46C29.4063 106.861 29.4754 107.196 29.6135 107.466C29.7516 107.736 29.9522 107.939 30.2153 108.078C30.4783 108.216 30.794 108.285 31.1623 108.285C31.4386 108.285 31.7115 108.245 31.9812 108.166C32.2508 108.087 32.5073 107.949 32.7507 107.752L33.0368 108.344C32.8066 108.548 32.5205 108.706 32.1785 108.817C31.8365 108.923 31.4945 108.975 31.1525 108.975ZM34.433 108.887V104.043H35.2222V105.177H35.1729C35.2913 104.802 35.4918 104.513 35.7747 104.309C36.064 104.105 36.4291 103.99 36.8697 103.964L37.2446 103.934L37.3137 104.684L36.702 104.743C36.2482 104.782 35.8963 104.93 35.6464 105.187C35.4031 105.437 35.2814 105.766 35.2814 106.174V108.887H34.433ZM39.7974 108.975C39.462 108.975 39.1595 108.913 38.8898 108.788C38.6202 108.656 38.4064 108.479 38.2486 108.255C38.0973 108.032 38.0217 107.782 38.0217 107.505C38.0217 107.144 38.1203 106.858 38.3176 106.647C38.5149 106.437 38.8273 106.289 39.2548 106.203C39.6823 106.111 40.2479 106.065 40.9517 106.065H41.5337V106.627H40.9813C40.5867 106.627 40.2545 106.64 39.9849 106.667C39.7152 106.693 39.4982 106.739 39.3338 106.805C39.1693 106.864 39.0509 106.946 38.9786 107.052C38.9063 107.157 38.8701 107.292 38.8701 107.456C38.8701 107.726 38.9687 107.939 39.166 108.097C39.3634 108.255 39.6231 108.334 39.9454 108.334C40.2216 108.334 40.4683 108.272 40.6853 108.147C40.9024 108.015 41.0734 107.841 41.1983 107.624C41.3299 107.4 41.3956 107.157 41.3956 106.894V105.769C41.3956 105.374 41.297 105.088 41.0997 104.911C40.9089 104.727 40.613 104.635 40.2118 104.635C39.9224 104.635 39.6396 104.677 39.3634 104.763C39.0871 104.842 38.801 104.973 38.5051 105.157L38.2288 104.536C38.413 104.417 38.6169 104.316 38.8405 104.23C39.0641 104.145 39.2976 104.079 39.5409 104.033C39.7909 103.98 40.0309 103.954 40.2611 103.954C40.682 103.954 41.0372 104.023 41.3266 104.161C41.616 104.293 41.8363 104.496 41.9875 104.773C42.1388 105.049 42.2145 105.404 42.2145 105.838V108.887H41.445V107.791H41.4844C41.4121 108.022 41.297 108.226 41.1391 108.403C40.9879 108.581 40.7971 108.722 40.5669 108.827C40.3433 108.926 40.0868 108.975 39.7974 108.975ZM45.9474 110.751C45.5462 110.751 45.1581 110.695 44.7832 110.583C44.4084 110.472 44.0828 110.31 43.8066 110.1L44.0828 109.469C44.2735 109.6 44.4675 109.709 44.6649 109.794C44.8622 109.88 45.066 109.942 45.2765 109.982C45.487 110.028 45.7007 110.051 45.9178 110.051C46.411 110.051 46.7892 109.922 47.0523 109.666C47.3154 109.416 47.4469 109.054 47.4469 108.581V107.584H47.4765C47.3713 107.939 47.1608 108.226 46.8451 108.443C46.5294 108.653 46.1644 108.758 45.75 108.758C45.3028 108.758 44.9115 108.66 44.5761 108.462C44.2472 108.258 43.9907 107.976 43.8066 107.614C43.6224 107.252 43.5303 106.835 43.5303 106.361C43.5303 105.881 43.6224 105.46 43.8066 105.098C43.9907 104.736 44.2472 104.457 44.5761 104.26C44.9115 104.056 45.3028 103.954 45.75 103.954C46.171 103.954 46.536 104.062 46.8451 104.279C47.1608 104.496 47.3746 104.786 47.4864 105.148H47.437V104.043H48.246V108.492C48.246 108.972 48.1572 109.38 47.9796 109.715C47.8021 110.051 47.5423 110.307 47.2003 110.485C46.8583 110.662 46.4406 110.751 45.9474 110.751ZM45.898 108.078C46.365 108.078 46.7366 107.923 47.0128 107.614C47.2891 107.298 47.4272 106.877 47.4272 106.351C47.4272 105.832 47.2891 105.417 47.0128 105.108C46.7366 104.799 46.365 104.644 45.898 104.644C45.4311 104.644 45.0595 104.799 44.7832 105.108C44.5136 105.417 44.3788 105.832 44.3788 106.351C44.3788 106.877 44.5136 107.298 44.7832 107.614C45.0595 107.923 45.4311 108.078 45.898 108.078ZM52.1454 108.975C51.6192 108.975 51.1654 108.877 50.7839 108.679C50.4025 108.475 50.1065 108.186 49.8961 107.811C49.6922 107.436 49.5902 106.989 49.5902 106.469C49.5902 105.976 49.6889 105.542 49.8862 105.167C50.0835 104.792 50.3597 104.496 50.7149 104.279C51.07 104.062 51.4844 103.954 51.9579 103.954C52.4183 103.954 52.8064 104.056 53.1221 104.26C53.4443 104.457 53.691 104.736 53.862 105.098C54.033 105.453 54.1185 105.881 54.1185 106.381V106.677H50.2216V106.104H53.5759L53.3983 106.262C53.3983 105.736 53.2766 105.328 53.0333 105.039C52.7899 104.743 52.4348 104.595 51.9678 104.595C51.6455 104.595 51.366 104.671 51.1292 104.822C50.899 104.967 50.7182 105.174 50.5866 105.443C50.4617 105.707 50.3992 106.019 50.3992 106.381V106.46C50.3992 106.861 50.4683 107.196 50.6064 107.466C50.7445 107.736 50.9451 107.939 51.2082 108.078C51.4712 108.216 51.7869 108.285 52.1552 108.285C52.4315 108.285 52.7044 108.245 52.9741 108.166C53.2437 108.087 53.5002 107.949 53.7436 107.752L54.0297 108.344C53.7995 108.548 53.5134 108.706 53.1714 108.817C52.8294 108.923 52.4874 108.975 52.1454 108.975ZM59.9004 108.887V102.671H57.3847V101.931H63.2743V102.671H60.7586V108.887H59.9004ZM65.7296 108.975C65.2034 108.975 64.7496 108.877 64.3682 108.679C63.9867 108.475 63.6907 108.186 63.4803 107.811C63.2764 107.436 63.1744 106.989 63.1744 106.469C63.1744 105.976 63.2731 105.542 63.4704 105.167C63.6677 104.792 63.9439 104.496 64.2991 104.279C64.6543 104.062 65.0686 103.954 65.5421 103.954C66.0025 103.954 66.3906 104.056 66.7063 104.26C67.0285 104.457 67.2752 104.736 67.4462 105.098C67.6172 105.453 67.7027 105.881 67.7027 106.381V106.677H63.8058V106.104H67.1601L66.9825 106.262C66.9825 105.736 66.8608 105.328 66.6175 105.039C66.3741 104.743 66.019 104.595 65.552 104.595C65.2297 104.595 64.9502 104.671 64.7134 104.822C64.4833 104.967 64.3024 105.174 64.1708 105.443C64.0459 105.707 63.9834 106.019 63.9834 106.381V106.46C63.9834 106.861 64.0525 107.196 64.1906 107.466C64.3287 107.736 64.5293 107.939 64.7924 108.078C65.0554 108.216 65.3711 108.285 65.7394 108.285C66.0157 108.285 66.2886 108.245 66.5583 108.166C66.8279 108.087 67.0844 107.949 67.3278 107.752L67.6139 108.344C67.3837 108.548 67.0976 108.706 66.7556 108.817C66.4136 108.923 66.0716 108.975 65.7296 108.975ZM69.0298 108.887V104.043H69.819V105.118H69.7697C69.8552 104.888 69.9736 104.687 70.1249 104.516C70.2827 104.339 70.4701 104.2 70.6872 104.102C70.9042 104.003 71.1443 103.954 71.4074 103.954C71.8217 103.954 72.1604 104.059 72.4235 104.269C72.6931 104.473 72.8641 104.759 72.9365 105.128H72.8674C72.9924 104.786 73.2029 104.506 73.4988 104.289C73.7948 104.066 74.1532 103.954 74.5741 103.954C74.9359 103.954 75.2384 104.026 75.4818 104.171C75.7317 104.309 75.9191 104.523 76.0441 104.812C76.1691 105.095 76.2315 105.453 76.2315 105.887V108.887H75.4028V105.937C75.4028 105.509 75.3239 105.19 75.1661 104.98C75.0148 104.769 74.7517 104.664 74.3768 104.664C74.1006 104.664 73.8606 104.73 73.6567 104.861C73.4594 104.986 73.3081 105.161 73.2029 105.384C73.0976 105.608 73.045 105.871 73.045 106.174V108.887H72.2163V105.937C72.2163 105.509 72.1341 105.19 71.9697 104.98C71.8053 104.769 71.5488 104.664 71.2002 104.664C70.9239 104.664 70.6839 104.733 70.48 104.871C70.2827 105.003 70.1281 105.18 70.0163 105.404C69.9111 105.628 69.8585 105.878 69.8585 106.154V108.887H69.0298ZM77.8735 110.662V104.043H78.6627V105.148H78.6233C78.7482 104.779 78.9653 104.49 79.2744 104.279C79.5901 104.062 79.9617 103.954 80.3892 103.954C80.8298 103.954 81.2146 104.059 81.5434 104.269C81.8723 104.473 82.1255 104.763 82.3031 105.138C82.4807 105.513 82.5694 105.953 82.5694 106.46C82.5694 106.966 82.4807 107.41 82.3031 107.791C82.1255 108.166 81.8723 108.459 81.5434 108.669C81.2212 108.873 80.8364 108.975 80.3892 108.975C79.9683 108.975 79.6032 108.87 79.2941 108.66C78.9916 108.449 78.7811 108.17 78.6627 107.821H78.7121V110.662H77.8735ZM80.2116 108.295C80.6786 108.295 81.0469 108.133 81.3165 107.811C81.5928 107.489 81.7309 107.038 81.7309 106.46C81.7309 105.887 81.5928 105.443 81.3165 105.128C81.0469 104.806 80.6786 104.644 80.2116 104.644C79.7512 104.644 79.3829 104.806 79.1067 105.128C78.837 105.443 78.7022 105.887 78.7022 106.46C78.7022 107.038 78.837 107.489 79.1067 107.811C79.3829 108.133 79.7512 108.295 80.2116 108.295ZM86.1733 108.975C85.6472 108.975 85.1934 108.877 84.8119 108.679C84.4304 108.475 84.1345 108.186 83.924 107.811C83.7201 107.436 83.6182 106.989 83.6182 106.469C83.6182 105.976 83.7168 105.542 83.9142 105.167C84.1115 104.792 84.3877 104.496 84.7428 104.279C85.098 104.062 85.5123 103.954 85.9859 103.954C86.4463 103.954 86.8343 104.056 87.15 104.26C87.4723 104.457 87.7189 104.736 87.8899 105.098C88.0609 105.453 88.1464 105.881 88.1464 106.381V106.677H84.2496V106.104H87.6038L87.4262 106.262C87.4262 105.736 87.3046 105.328 87.0612 105.039C86.8179 104.743 86.4627 104.595 85.9958 104.595C85.6735 104.595 85.394 104.671 85.1572 104.822C84.927 104.967 84.7461 105.174 84.6146 105.443C84.4896 105.707 84.4272 106.019 84.4272 106.381V106.46C84.4272 106.861 84.4962 107.196 84.6343 107.466C84.7724 107.736 84.973 107.939 85.2361 108.078C85.4992 108.216 85.8149 108.285 86.1832 108.285C86.4594 108.285 86.7324 108.245 87.002 108.166C87.2717 108.087 87.5282 107.949 87.7715 107.752L88.0576 108.344C87.8274 108.548 87.5413 108.706 87.1993 108.817C86.8573 108.923 86.5153 108.975 86.1733 108.975ZM89.4538 108.887V104.043H90.243V105.177H90.1937C90.3121 104.802 90.5127 104.513 90.7955 104.309C91.0849 104.105 91.4499 103.99 91.8906 103.964L92.2654 103.934L92.3345 104.684L91.7229 104.743C91.269 104.782 90.9172 104.93 90.6673 105.187C90.4239 105.437 90.3022 105.766 90.3022 106.174V108.887H89.4538ZM94.8183 108.975C94.4829 108.975 94.1803 108.913 93.9107 108.788C93.641 108.656 93.4273 108.479 93.2694 108.255C93.1181 108.032 93.0425 107.782 93.0425 107.505C93.0425 107.144 93.1412 106.858 93.3385 106.647C93.5358 106.437 93.8482 106.289 94.2757 106.203C94.7032 106.111 95.2688 106.065 95.9725 106.065H96.5546V106.627H96.0021C95.6075 106.627 95.2754 106.64 95.0057 106.667C94.7361 106.693 94.519 106.739 94.3546 106.805C94.1902 106.864 94.0718 106.946 93.9994 107.052C93.9271 107.157 93.8909 107.292 93.8909 107.456C93.8909 107.726 93.9896 107.939 94.1869 108.097C94.3842 108.255 94.644 108.334 94.9663 108.334C95.2425 108.334 95.4891 108.272 95.7062 108.147C95.9232 108.015 96.0942 107.841 96.2192 107.624C96.3507 107.4 96.4165 107.157 96.4165 106.894V105.769C96.4165 105.374 96.3178 105.088 96.1205 104.911C95.9298 104.727 95.6338 104.635 95.2326 104.635C94.9432 104.635 94.6604 104.677 94.3842 104.763C94.108 104.842 93.8219 104.973 93.5259 105.157L93.2497 104.536C93.4338 104.417 93.6377 104.316 93.8613 104.23C94.0849 104.145 94.3184 104.079 94.5618 104.033C94.8117 103.98 95.0518 103.954 95.282 103.954C95.7029 103.954 96.058 104.023 96.3474 104.161C96.6368 104.293 96.8571 104.496 97.0084 104.773C97.1597 105.049 97.2353 105.404 97.2353 105.838V108.887H96.4658V107.791H96.5053C96.4329 108.022 96.3178 108.226 96.16 108.403C96.0087 108.581 95.818 108.722 95.5878 108.827C95.3642 108.926 95.1077 108.975 94.8183 108.975ZM100.84 108.975C100.261 108.975 99.8271 108.824 99.5377 108.521C99.2483 108.212 99.1036 107.775 99.1036 107.209V104.723H98.1368V104.043H99.1135V102.592H99.9422V104.043H101.58V104.723H99.9422V107.13C99.9422 107.505 100.021 107.788 100.179 107.979C100.343 108.163 100.603 108.255 100.958 108.255C101.077 108.255 101.195 108.242 101.313 108.216C101.432 108.183 101.544 108.15 101.649 108.117L101.787 108.768C101.682 108.827 101.54 108.877 101.363 108.916C101.185 108.956 101.011 108.975 100.84 108.975ZM104.419 108.975C104.024 108.975 103.692 108.903 103.422 108.758C103.159 108.614 102.962 108.4 102.83 108.117C102.699 107.828 102.633 107.472 102.633 107.052V104.043H103.471V107.022C103.471 107.285 103.508 107.512 103.58 107.703C103.659 107.887 103.781 108.028 103.945 108.127C104.109 108.219 104.323 108.265 104.586 108.265C104.862 108.265 105.106 108.203 105.316 108.078C105.533 107.946 105.704 107.768 105.829 107.545C105.954 107.321 106.017 107.068 106.017 106.785V104.043H106.855V108.887H106.056V107.801H106.115C105.971 108.176 105.75 108.466 105.454 108.669C105.165 108.873 104.82 108.975 104.419 108.975ZM108.491 108.887V104.043H109.28V105.177H109.231C109.349 104.802 109.55 104.513 109.833 104.309C110.122 104.105 110.487 103.99 110.928 103.964L111.303 103.934L111.372 104.684L110.76 104.743C110.306 104.782 109.954 104.93 109.704 105.187C109.461 105.437 109.339 105.766 109.339 106.174V108.887H108.491ZM114.536 108.975C114.01 108.975 113.556 108.877 113.175 108.679C112.793 108.475 112.498 108.186 112.287 107.811C112.083 107.436 111.981 106.989 111.981 106.469C111.981 105.976 112.08 105.542 112.277 105.167C112.475 104.792 112.751 104.496 113.106 104.279C113.461 104.062 113.875 103.954 114.349 103.954C114.809 103.954 115.197 104.056 115.513 104.26C115.835 104.457 116.082 104.736 116.253 105.098C116.424 105.453 116.509 105.881 116.509 106.381V106.677H112.613V106.104H115.967L115.789 106.262C115.789 105.736 115.668 105.328 115.424 105.039C115.181 104.743 114.826 104.595 114.359 104.595C114.037 104.595 113.757 104.671 113.52 104.822C113.29 104.967 113.109 105.174 112.978 105.443C112.853 105.707 112.79 106.019 112.79 106.381V106.46C112.79 106.861 112.859 107.196 112.997 107.466C113.135 107.736 113.336 107.939 113.599 108.078C113.862 108.216 114.178 108.285 114.546 108.285C114.822 108.285 115.095 108.245 115.365 108.166C115.635 108.087 115.891 107.949 116.135 107.752L116.421 108.344C116.19 108.548 115.904 108.706 115.562 108.817C115.22 108.923 114.878 108.975 114.536 108.975Z" fill="#231F20"/>
</svg>
