<svg width="1721" height="875" viewBox="0 0 1721 875" fill="none" xmlns="http://www.w3.org/2000/svg">
<rect width="1720.86" height="874.591" transform="translate(0.537598)" fill="#231F20"/>
<path d="M371.505 601.794C371.505 601.794 406.759 595.461 457.401 588.485C535.544 577.749 652.255 558.327 733.371 532.472C866.916 489.768 916.172 445.396 916.172 445.396C916.172 445.396 770.976 432.086 599.805 468.135C428.635 504.184 371.505 601.794 371.505 601.794Z" fill="#ED1C24"/>
<path d="M337.979 618.162L323.013 606.521C522.21 301.929 848.664 305.108 1183.34 287.894C1256.44 283.851 1328.98 272.891 1400.01 255.162C1400.01 255.162 1306.04 352.17 1115.16 399.92C988.831 431.525 857.676 416.447 735.3 424.529C648.922 430.239 559.369 457.119 531.105 466.468C399.348 509.996 337.979 618.162 337.979 618.162Z" fill="#ED1C24"/>
<path d="M1070.55 481.467V490.474H1050.68V512.369H1041.68V490.474H1021.79V481.467H1070.55Z" fill="white"/>
<path d="M1122.66 492.344H1073.88V501.352H1122.66V492.344Z" fill="white"/>
<path d="M1080.33 481.447H1122.52V490.393H1073.88V487.9C1073.9 486.194 1074.58 484.561 1075.79 483.354C1077 482.147 1078.63 481.462 1080.33 481.447Z" fill="white"/>
<path d="M1082.88 512.369V492.324H1073.88V512.369H1082.88Z" fill="white"/>
<path d="M975.536 481.385H1017.72V490.393H969.027V487.9C969.027 486.172 969.713 484.515 970.934 483.293C972.154 482.072 973.81 481.385 975.536 481.385Z" fill="white"/>
<path d="M978.026 501.292V503.302H1017.78V512.309H974.873C974.102 512.309 973.34 512.158 972.628 511.862C971.916 511.567 971.27 511.135 970.725 510.59C970.18 510.045 969.748 509.398 969.453 508.685C969.159 507.973 969.007 507.21 969.007 506.439V492.365H1017.78V501.392L978.026 501.292Z" fill="white"/>
<path d="M1280.51 503.361V512.369H1237.74C1236.15 512.369 1234.61 511.733 1233.48 510.602C1232.35 509.471 1231.72 507.937 1231.72 506.337V481.467H1240.72V503.361H1280.51Z" fill="white"/>
<path d="M964.986 481.385V506.577C964.988 507.337 964.841 508.089 964.553 508.792C964.264 509.494 963.84 510.133 963.304 510.671C962.769 511.208 962.132 511.635 961.431 511.927C960.73 512.218 959.979 512.368 959.22 512.368H922.017C920.483 512.368 919.011 511.758 917.926 510.672C916.841 509.586 916.232 508.113 916.232 506.577V498.435H925.231V503.441H955.986V481.385H964.986Z" fill="white"/>
<path d="M1174.75 481.467V505.875C1174.75 507.593 1174.06 509.242 1172.85 510.459C1171.64 511.677 1169.99 512.363 1168.28 512.369H1132.56C1130.84 512.369 1129.19 511.684 1127.97 510.466C1126.76 509.249 1126.07 507.597 1126.07 505.875V481.467H1135.07V503.361H1165.83V481.467H1174.75Z" fill="white"/>
<path d="M1185.4 481.447H1227.58V490.393H1178.87V487.9C1178.88 486.18 1179.58 484.535 1180.8 483.326C1182.03 482.117 1183.68 481.441 1185.4 481.447Z" fill="white"/>
<path d="M1187.88 501.357V503.368H1227.64V512.375H1184.79C1184.02 512.378 1183.26 512.228 1182.55 511.936C1181.84 511.643 1181.19 511.212 1180.64 510.669C1180.1 510.125 1179.67 509.479 1179.37 508.768C1179.08 508.057 1178.92 507.295 1178.92 506.525V492.411H1227.7V501.438L1187.88 501.357Z" fill="white"/>
</svg>
